# Tiled2Unity generated file. Do not modify by hand.
# Wavefront file for 'overworld_mesh_0009.obj'

# Vertices (Count = 8)
v -320 -1408 0
v -336 -1408 0
v -336 -1392 0
v -320 -1392 0
v -336 -1584 0
v -352 -1584 0
v -352 -1568 0
v -336 -1568 0

# Texture cooridinates (Count = 6)
vt 0.04 0.6666666
vt 0.08 0.6666666
vt 0.08 0.7222222
vt 0.04 0.7222222
vt 0 0.6666666
vt 0 0.7222222

# Normal
vn 0 0 -1

# Mesh description
g overworld_mesh_0009

# Faces
f 1/1/1 2/2/1 3/3/1 4/4/1
f 5/1/1 6/5/1 7/6/1 8/4/1

