# Tiled2Unity generated file. Do not modify by hand.
# Wavefront file for 'overworld_mesh_0003.obj'

# Vertices (Count = 472)
v -192 -208 0
v -208 -208 0
v -208 -192 0
v -192 -192 0
v -208 -208 0
v -224 -208 0
v -224 -192 0
v -208 -192 0
v -224 -208 0
v -240 -208 0
v -240 -192 0
v -224 -192 0
v -240 -208 0
v -256 -208 0
v -256 -192 0
v -240 -192 0
v -528 -720 0
v -544 -720 0
v -544 -704 0
v -528 -704 0
v -544 -720 0
v -560 -720 0
v -560 -704 0
v -544 -704 0
v -496 -736 0
v -512 -736 0
v -512 -720 0
v -496 -720 0
v -512 -736 0
v -528 -736 0
v -528 -720 0
v -512 -720 0
v -528 -736 0
v -544 -736 0
v -544 -720 0
v -528 -720 0
v -544 -736 0
v -560 -736 0
v -560 -720 0
v -544 -720 0
v -560 -736 0
v -576 -736 0
v -576 -720 0
v -560 -720 0
v -496 -752 0
v -512 -752 0
v -512 -736 0
v -496 -736 0
v -512 -752 0
v -528 -752 0
v -528 -736 0
v -512 -736 0
v -528 -752 0
v -544 -752 0
v -544 -736 0
v -528 -736 0
v -544 -752 0
v -560 -752 0
v -560 -736 0
v -544 -736 0
v -560 -752 0
v -576 -752 0
v -576 -736 0
v -560 -736 0
v -496 -768 0
v -512 -768 0
v -512 -752 0
v -496 -752 0
v -512 -768 0
v -528 -768 0
v -528 -752 0
v -512 -752 0
v -528 -768 0
v -544 -768 0
v -544 -752 0
v -528 -752 0
v -544 -768 0
v -560 -768 0
v -560 -752 0
v -544 -752 0
v -560 -768 0
v -576 -768 0
v -576 -752 0
v -560 -752 0
v -576 -768 0
v -592 -768 0
v -592 -752 0
v -576 -752 0
v -528 -784 0
v -544 -784 0
v -544 -768 0
v -528 -768 0
v -544 -784 0
v -560 -784 0
v -560 -768 0
v -544 -768 0
v -560 -784 0
v -576 -784 0
v -576 -768 0
v -560 -768 0
v -576 -784 0
v -592 -784 0
v -592 -768 0
v -576 -768 0
v -560 -800 0
v -576 -800 0
v -576 -784 0
v -560 -784 0
v -576 -800 0
v -592 -800 0
v -592 -784 0
v -576 -784 0
v -288 -1008 0
v -304 -1008 0
v -304 -992 0
v -288 -992 0
v -512 -1008 0
v -528 -1008 0
v -528 -992 0
v -512 -992 0
v -528 -1008 0
v -544 -1008 0
v -544 -992 0
v -528 -992 0
v -544 -1008 0
v -560 -1008 0
v -560 -992 0
v -544 -992 0
v -304 -1024 0
v -320 -1024 0
v -320 -1008 0
v -304 -1008 0
v -320 -1024 0
v -336 -1024 0
v -336 -1008 0
v -320 -1008 0
v -512 -1024 0
v -528 -1024 0
v -528 -1008 0
v -512 -1008 0
v -528 -1024 0
v -544 -1024 0
v -544 -1008 0
v -528 -1008 0
v -544 -1024 0
v -560 -1024 0
v -560 -1008 0
v -544 -1008 0
v -560 -1024 0
v -576 -1024 0
v -576 -1008 0
v -560 -1008 0
v -288 -1040 0
v -304 -1040 0
v -304 -1024 0
v -288 -1024 0
v -304 -1040 0
v -320 -1040 0
v -320 -1024 0
v -304 -1024 0
v -320 -1040 0
v -336 -1040 0
v -336 -1024 0
v -320 -1024 0
v -336 -1040 0
v -352 -1040 0
v -352 -1024 0
v -336 -1024 0
v -512 -1040 0
v -528 -1040 0
v -528 -1024 0
v -512 -1024 0
v -528 -1040 0
v -544 -1040 0
v -544 -1024 0
v -528 -1024 0
v -544 -1040 0
v -560 -1040 0
v -560 -1024 0
v -544 -1024 0
v -560 -1040 0
v -576 -1040 0
v -576 -1024 0
v -560 -1024 0
v -576 -1040 0
v -592 -1040 0
v -592 -1024 0
v -576 -1024 0
v -288 -1056 0
v -304 -1056 0
v -304 -1040 0
v -288 -1040 0
v -304 -1056 0
v -320 -1056 0
v -320 -1040 0
v -304 -1040 0
v -320 -1056 0
v -336 -1056 0
v -336 -1040 0
v -320 -1040 0
v -336 -1056 0
v -352 -1056 0
v -352 -1040 0
v -336 -1040 0
v -352 -1056 0
v -368 -1056 0
v -368 -1040 0
v -352 -1040 0
v -528 -1056 0
v -544 -1056 0
v -544 -1040 0
v -528 -1040 0
v -544 -1056 0
v -560 -1056 0
v -560 -1040 0
v -544 -1040 0
v -560 -1056 0
v -576 -1056 0
v -576 -1040 0
v -560 -1040 0
v -576 -1056 0
v -592 -1056 0
v -592 -1040 0
v -576 -1040 0
v -288 -1072 0
v -304 -1072 0
v -304 -1056 0
v -288 -1056 0
v -304 -1072 0
v -320 -1072 0
v -320 -1056 0
v -304 -1056 0
v -320 -1072 0
v -336 -1072 0
v -336 -1056 0
v -320 -1056 0
v -336 -1072 0
v -352 -1072 0
v -352 -1056 0
v -336 -1056 0
v -368 -1072 0
v -384 -1072 0
v -384 -1056 0
v -368 -1056 0
v -288 -1088 0
v -304 -1088 0
v -304 -1072 0
v -288 -1072 0
v -304 -1088 0
v -320 -1088 0
v -320 -1072 0
v -304 -1072 0
v -320 -1088 0
v -336 -1088 0
v -336 -1072 0
v -320 -1072 0
v -336 -1088 0
v -352 -1088 0
v -352 -1072 0
v -336 -1072 0
v -352 -1088 0
v -368 -1088 0
v -368 -1072 0
v -352 -1072 0
v -304 -1104 0
v -320 -1104 0
v -320 -1088 0
v -304 -1088 0
v -320 -1104 0
v -336 -1104 0
v -336 -1088 0
v -320 -1088 0
v -336 -1104 0
v -352 -1104 0
v -352 -1088 0
v -336 -1088 0
v -352 -1104 0
v -368 -1104 0
v -368 -1088 0
v -352 -1088 0
v -512 -1328 0
v -528 -1328 0
v -528 -1312 0
v -512 -1312 0
v -496 -1360 0
v -512 -1360 0
v -512 -1344 0
v -496 -1344 0
v -512 -1360 0
v -528 -1360 0
v -528 -1344 0
v -512 -1344 0
v -528 -1360 0
v -544 -1360 0
v -544 -1344 0
v -528 -1344 0
v -544 -1360 0
v -560 -1360 0
v -560 -1344 0
v -544 -1344 0
v -480 -1376 0
v -496 -1376 0
v -496 -1360 0
v -480 -1360 0
v -496 -1376 0
v -512 -1376 0
v -512 -1360 0
v -496 -1360 0
v -512 -1376 0
v -528 -1376 0
v -528 -1360 0
v -512 -1360 0
v -304 -1392 0
v -320 -1392 0
v -320 -1376 0
v -304 -1376 0
v -352 -1392 0
v -368 -1392 0
v -368 -1376 0
v -352 -1376 0
v -480 -1392 0
v -496 -1392 0
v -496 -1376 0
v -480 -1376 0
v -496 -1392 0
v -512 -1392 0
v -512 -1376 0
v -496 -1376 0
v -512 -1392 0
v -528 -1392 0
v -528 -1376 0
v -512 -1376 0
v -288 -1408 0
v -304 -1408 0
v -304 -1392 0
v -288 -1392 0
v -304 -1408 0
v -320 -1408 0
v -320 -1392 0
v -304 -1392 0
v -320 -1408 0
v -336 -1408 0
v -336 -1392 0
v -320 -1392 0
v -464 -1408 0
v -480 -1408 0
v -480 -1392 0
v -464 -1392 0
v -496 -1408 0
v -512 -1408 0
v -512 -1392 0
v -496 -1392 0
v -448 -1424 0
v -464 -1424 0
v -464 -1408 0
v -448 -1408 0
v -400 -1488 0
v -416 -1488 0
v -416 -1472 0
v -400 -1472 0
v -448 -1504 0
v -464 -1504 0
v -464 -1488 0
v -448 -1488 0
v -384 -1520 0
v -400 -1520 0
v -400 -1504 0
v -384 -1504 0
v -448 -1520 0
v -464 -1520 0
v -464 -1504 0
v -448 -1504 0
v -368 -1536 0
v -384 -1536 0
v -384 -1520 0
v -368 -1520 0
v -112 -1584 0
v -128 -1584 0
v -128 -1568 0
v -112 -1568 0
v -384 -1584 0
v -400 -1584 0
v -400 -1568 0
v -384 -1568 0
v -112 -1600 0
v -128 -1600 0
v -128 -1584 0
v -112 -1584 0
v -368 -1616 0
v -384 -1616 0
v -384 -1600 0
v -368 -1600 0
v -384 -1632 0
v -400 -1632 0
v -400 -1616 0
v -384 -1616 0
v -400 -1632 0
v -416 -1632 0
v -416 -1616 0
v -400 -1616 0
v -400 -1664 0
v -416 -1664 0
v -416 -1648 0
v -400 -1648 0
v -416 -1664 0
v -432 -1664 0
v -432 -1648 0
v -416 -1648 0
v -432 -1664 0
v -448 -1664 0
v -448 -1648 0
v -432 -1648 0
v -416 -1680 0
v -432 -1680 0
v -432 -1664 0
v -416 -1664 0
v -432 -1680 0
v -448 -1680 0
v -448 -1664 0
v -432 -1664 0
v -448 -1680 0
v -464 -1680 0
v -464 -1664 0
v -448 -1664 0
v -416 -1696 0
v -432 -1696 0
v -432 -1680 0
v -416 -1680 0
v -448 -1696 0
v -464 -1696 0
v -464 -1680 0
v -448 -1680 0
v -464 -1696 0
v -480 -1696 0
v -480 -1680 0
v -464 -1680 0
v -304 -1712 0
v -320 -1712 0
v -320 -1696 0
v -304 -1696 0
v -320 -1712 0
v -336 -1712 0
v -336 -1696 0
v -320 -1696 0
v -336 -1712 0
v -352 -1712 0
v -352 -1696 0
v -336 -1696 0
v -352 -1712 0
v -368 -1712 0
v -368 -1696 0
v -352 -1696 0
v -416 -1712 0
v -432 -1712 0
v -432 -1696 0
v -416 -1696 0
v -432 -1712 0
v -448 -1712 0
v -448 -1696 0
v -432 -1696 0
v -448 -1712 0
v -464 -1712 0
v -464 -1696 0
v -448 -1696 0
v -464 -1712 0
v -480 -1712 0
v -480 -1696 0
v -464 -1696 0
v -480 -1712 0
v -496 -1712 0
v -496 -1696 0
v -480 -1696 0

# Texture cooridinates (Count = 37)
vt 0.12 0.05555558
vt 0.16 0.05555558
vt 0.16 0.1111111
vt 0.12 0.1111111
vt 0.2 0.2222222
vt 0.24 0.2222222
vt 0.24 0.2777778
vt 0.2 0.2777778
vt 0.28 0.2222222
vt 0.32 0.2222222
vt 0.32 0.2777778
vt 0.28 0.2777778
vt 0.24 0.1666667
vt 0.28 0.1666667
vt 0.2 0.1666667
vt 0.32 0.1666667
vt 0.2 0.1111111
vt 0.24 0.1111111
vt 0.28 0.1111111
vt 0.32 0.1111111
vt 0.24 0.3333333
vt 0.28 0.3333333
vt 0.28 0.3888889
vt 0.24 0.3888889
vt 0.32 0.3333333
vt 0.32 0.3888889
vt 0 0.6666666
vt 0.04 0.6666666
vt 0.04 0.7222222
vt 0 0.7222222
vt 0.32 0.4444444
vt 0.28 0.4444444
vt 0.12 0.1666667
vt 0.16 0.1666667
vt 0.16 0.2222222
vt 0.12 0.2222222
vt 0.2 0.3333333

# Normal
vn 0 0 -1

# Mesh description
g overworld_mesh_0003

# Faces
f 1/1/1 2/2/1 3/3/1 4/4/1
f 5/1/1 6/2/1 7/3/1 8/4/1
f 9/1/1 10/2/1 11/3/1 12/4/1
f 13/1/1 14/2/1 15/3/1 16/4/1
f 17/5/1 18/6/1 19/7/1 20/8/1
f 21/9/1 22/10/1 23/11/1 24/12/1
f 25/5/1 26/6/1 27/7/1 28/8/1
f 29/6/1 30/9/1 31/12/1 32/7/1
f 33/13/1 34/14/1 35/9/1 36/6/1
f 37/13/1 38/14/1 39/9/1 40/6/1
f 41/9/1 42/10/1 43/11/1 44/12/1
f 45/15/1 46/13/1 47/6/1 48/5/1
f 49/13/1 50/14/1 51/9/1 52/6/1
f 53/13/1 54/14/1 55/9/1 56/6/1
f 57/13/1 58/14/1 59/9/1 60/6/1
f 61/14/1 62/16/1 63/10/1 64/9/1
f 65/17/1 66/18/1 67/13/1 68/15/1
f 69/18/1 70/19/1 71/14/1 72/13/1
f 73/13/1 74/14/1 75/9/1 76/6/1
f 77/13/1 78/14/1 79/9/1 80/6/1
f 81/13/1 82/14/1 83/9/1 84/6/1
f 85/9/1 86/10/1 87/11/1 88/12/1
f 89/17/1 90/18/1 91/13/1 92/15/1
f 93/18/1 94/19/1 95/14/1 96/13/1
f 97/13/1 98/14/1 99/9/1 100/6/1
f 101/14/1 102/16/1 103/10/1 104/9/1
f 105/18/1 106/19/1 107/14/1 108/13/1
f 109/19/1 110/20/1 111/16/1 112/14/1
f 113/21/1 114/22/1 115/23/1 116/24/1
f 117/5/1 118/6/1 119/7/1 120/8/1
f 121/6/1 122/9/1 123/12/1 124/7/1
f 125/9/1 126/10/1 127/11/1 128/12/1
f 129/5/1 130/6/1 131/7/1 132/8/1
f 133/9/1 134/10/1 135/11/1 136/12/1
f 137/15/1 138/13/1 139/6/1 140/5/1
f 141/13/1 142/14/1 143/9/1 144/6/1
f 145/13/1 146/14/1 147/9/1 148/6/1
f 149/9/1 150/10/1 151/11/1 152/12/1
f 153/5/1 154/6/1 155/7/1 156/8/1
f 157/13/1 158/14/1 159/9/1 160/6/1
f 161/13/1 162/14/1 163/9/1 164/6/1
f 165/9/1 166/10/1 167/11/1 168/12/1
f 169/17/1 170/18/1 171/13/1 172/15/1
f 173/13/1 174/14/1 175/9/1 176/6/1
f 177/13/1 178/14/1 179/9/1 180/6/1
f 181/14/1 182/16/1 183/10/1 184/9/1
f 185/9/1 186/10/1 187/11/1 188/12/1
f 189/15/1 190/13/1 191/6/1 192/5/1
f 193/13/1 194/14/1 195/9/1 196/6/1
f 197/13/1 198/14/1 199/9/1 200/6/1
f 201/14/1 202/16/1 203/10/1 204/9/1
f 205/7/1 206/12/1 207/22/1 208/21/1
f 209/17/1 210/18/1 211/13/1 212/15/1
f 213/18/1 214/19/1 215/14/1 216/13/1
f 217/19/1 218/20/1 219/16/1 220/14/1
f 221/19/1 222/20/1 223/16/1 224/14/1
f 225/15/1 226/13/1 227/6/1 228/5/1
f 229/13/1 230/14/1 231/9/1 232/6/1
f 233/13/1 234/14/1 235/9/1 236/6/1
f 237/14/1 238/16/1 239/10/1 240/9/1
f 241/21/1 242/22/1 243/23/1 244/24/1
f 245/17/1 246/18/1 247/13/1 248/15/1
f 249/13/1 250/14/1 251/9/1 252/6/1
f 253/13/1 254/14/1 255/9/1 256/6/1
f 257/14/1 258/16/1 259/10/1 260/9/1
f 261/9/1 262/10/1 263/11/1 264/12/1
f 265/17/1 266/18/1 267/13/1 268/15/1
f 269/18/1 270/19/1 271/14/1 272/13/1
f 273/18/1 274/19/1 275/14/1 276/13/1
f 277/19/1 278/20/1 279/16/1 280/14/1
f 281/1/1 282/2/1 283/3/1 284/4/1
f 285/5/1 286/6/1 287/7/1 288/8/1
f 289/6/1 290/9/1 291/12/1 292/7/1
f 293/21/1 294/22/1 295/23/1 296/24/1
f 297/21/1 298/22/1 299/23/1 300/24/1
f 301/21/1 302/22/1 303/23/1 304/24/1
f 305/15/1 306/13/1 307/6/1 308/5/1
f 309/22/1 310/25/1 311/26/1 312/23/1
f 313/9/1 314/10/1 315/11/1 316/12/1
f 317/21/1 318/22/1 319/23/1 320/24/1
f 321/21/1 322/22/1 323/23/1 324/24/1
f 325/17/1 326/18/1 327/13/1 328/15/1
f 329/19/1 330/20/1 331/16/1 332/14/1
f 333/21/1 334/22/1 335/23/1 336/24/1
f 337/19/1 338/20/1 339/16/1 340/14/1
f 341/21/1 342/22/1 343/23/1 344/24/1
f 345/21/1 346/22/1 347/23/1 348/24/1
f 349/21/1 350/22/1 351/23/1 352/24/1
f 353/21/1 354/22/1 355/23/1 356/24/1
f 357/27/1 358/28/1 359/29/1 360/30/1
f 361/28/1 362/27/1 363/30/1 364/29/1
f 365/27/1 366/28/1 367/29/1 368/30/1
f 369/29/1 370/30/1 371/27/1 372/28/1
f 373/27/1 374/28/1 375/29/1 376/30/1
f 377/9/1 378/10/1 379/11/1 380/12/1
f 381/21/1 382/22/1 383/23/1 384/24/1
f 385/19/1 386/20/1 387/16/1 388/14/1
f 389/21/1 390/22/1 391/23/1 392/24/1
f 393/21/1 394/22/1 395/23/1 396/24/1
f 397/21/1 398/22/1 399/23/1 400/24/1
f 401/21/1 402/22/1 403/23/1 404/24/1
f 405/6/1 406/9/1 407/12/1 408/7/1
f 409/9/1 410/10/1 411/11/1 412/12/1
f 413/17/1 414/18/1 415/13/1 416/15/1
f 417/18/1 418/19/1 419/14/1 420/13/1
f 421/23/1 422/26/1 423/31/1 424/32/1
f 425/21/1 426/22/1 427/23/1 428/24/1
f 429/22/1 430/25/1 431/26/1 432/23/1
f 433/9/1 434/10/1 435/11/1 436/12/1
f 437/33/1 438/34/1 439/35/1 440/36/1
f 441/34/1 442/15/1 443/5/1 444/35/1
f 445/33/1 446/34/1 447/35/1 448/36/1
f 449/34/1 450/15/1 451/5/1 452/35/1
f 453/8/1 454/7/1 455/21/1 456/37/1
f 457/7/1 458/12/1 459/22/1 460/21/1
f 461/14/1 462/16/1 463/10/1 464/9/1
f 465/14/1 466/16/1 467/10/1 468/9/1
f 469/14/1 470/16/1 471/10/1 472/9/1

