# Tiled2Unity generated file. Do not modify by hand.
# Wavefront file for 'town1_store_mesh_0003.obj'

# Vertices (Count = 32)
v -48 -112 0
v -64 -112 0
v -64 -96 0
v -48 -96 0
v -48 -128 0
v -64 -128 0
v -64 -112 0
v -48 -112 0
v -48 -144 0
v -64 -144 0
v -64 -128 0
v -48 -128 0
v -256 -144 0
v -272 -144 0
v -272 -128 0
v -256 -128 0
v -48 -160 0
v -64 -160 0
v -64 -144 0
v -48 -144 0
v -256 -160 0
v -272 -160 0
v -272 -144 0
v -256 -144 0
v -256 -192 0
v -272 -192 0
v -272 -176 0
v -256 -176 0
v -256 -208 0
v -272 -208 0
v -272 -192 0
v -256 -192 0

# Texture cooridinates (Count = 12)
vt 0.32 0.6111111
vt 0.36 0.6111111
vt 0.36 0.6666666
vt 0.32 0.6666666
vt 0.32 0.5555556
vt 0.36 0.5555556
vt 0.76 0.5
vt 0.8 0.5
vt 0.8 0.5555556
vt 0.76 0.5555556
vt 0.76 0.4444444
vt 0.8 0.4444444

# Normal
vn 0 0 -1

# Mesh description
g town1_store_mesh_0003

# Faces
f 1/1/1 2/2/1 3/3/1 4/4/1
f 5/5/1 6/6/1 7/2/1 8/1/1
f 9/7/1 10/8/1 11/9/1 12/10/1
f 13/7/1 14/8/1 15/9/1 16/10/1
f 17/11/1 18/12/1 19/8/1 20/7/1
f 21/11/1 22/12/1 23/8/1 24/7/1
f 25/7/1 26/8/1 27/9/1 28/10/1
f 29/11/1 30/12/1 31/8/1 32/7/1

