# Tiled2Unity generated file. Do not modify by hand.
# Wavefront file for 'town1_store_mesh_0004.obj'

# Vertices (Count = 24)
v -64 -96 0
v -80 -96 0
v -80 -80 0
v -64 -80 0
v -80 -96 0
v -96 -96 0
v -96 -80 0
v -80 -80 0
v -96 -96 0
v -112 -96 0
v -112 -80 0
v -96 -80 0
v -64 -112 0
v -80 -112 0
v -80 -96 0
v -64 -96 0
v -80 -112 0
v -96 -112 0
v -96 -96 0
v -80 -96 0
v -96 -112 0
v -112 -112 0
v -112 -96 0
v -96 -96 0

# Texture cooridinates (Count = 12)
vt 0.72 0.3888889
vt 0.76 0.3888889
vt 0.76 0.4444444
vt 0.72 0.4444444
vt 0.8 0.3888889
vt 0.8 0.4444444
vt 0.84 0.3888889
vt 0.84 0.4444444
vt 0.72 0.3333333
vt 0.76 0.3333333
vt 0.8 0.3333333
vt 0.84 0.3333333

# Normal
vn 0 0 -1

# Mesh description
g town1_store_mesh_0004

# Faces
f 1/1/1 2/2/1 3/3/1 4/4/1
f 5/2/1 6/5/1 7/6/1 8/3/1
f 9/5/1 10/7/1 11/8/1 12/6/1
f 13/9/1 14/10/1 15/2/1 16/1/1
f 17/10/1 18/11/1 19/5/1 20/2/1
f 21/11/1 22/12/1 23/7/1 24/5/1

