# Tiled2Unity generated file. Do not modify by hand.
# Wavefront file for 'town1_store_mesh_0002.obj'

# Vertices (Count = 236)
v -112 -64 0
v -128 -64 0
v -128 -48 0
v -112 -48 0
v -256 -64 0
v -272 -64 0
v -272 -48 0
v -256 -48 0
v -48 -80 0
v -64 -80 0
v -64 -64 0
v -48 -64 0
v -112 -80 0
v -128 -80 0
v -128 -64 0
v -112 -64 0
v -160 -80 0
v -176 -80 0
v -176 -64 0
v -160 -64 0
v -176 -80 0
v -192 -80 0
v -192 -64 0
v -176 -64 0
v -192 -80 0
v -208 -80 0
v -208 -64 0
v -192 -64 0
v -208 -80 0
v -224 -80 0
v -224 -64 0
v -208 -64 0
v -224 -80 0
v -240 -80 0
v -240 -64 0
v -224 -64 0
v -240 -80 0
v -256 -80 0
v -256 -64 0
v -240 -64 0
v -256 -80 0
v -272 -80 0
v -272 -64 0
v -256 -64 0
v -48 -96 0
v -64 -96 0
v -64 -80 0
v -48 -80 0
v -64 -96 0
v -80 -96 0
v -80 -80 0
v -64 -80 0
v -80 -96 0
v -96 -96 0
v -96 -80 0
v -80 -80 0
v -96 -96 0
v -112 -96 0
v -112 -80 0
v -96 -80 0
v -112 -96 0
v -128 -96 0
v -128 -80 0
v -112 -80 0
v -128 -96 0
v -144 -96 0
v -144 -80 0
v -128 -80 0
v -160 -96 0
v -176 -96 0
v -176 -80 0
v -160 -80 0
v -176 -96 0
v -192 -96 0
v -192 -80 0
v -176 -80 0
v -192 -96 0
v -208 -96 0
v -208 -80 0
v -192 -80 0
v -208 -96 0
v -224 -96 0
v -224 -80 0
v -208 -80 0
v -224 -96 0
v -240 -96 0
v -240 -80 0
v -224 -80 0
v -240 -96 0
v -256 -96 0
v -256 -80 0
v -240 -80 0
v -64 -112 0
v -80 -112 0
v -80 -96 0
v -64 -96 0
v -80 -112 0
v -96 -112 0
v -96 -96 0
v -80 -96 0
v -96 -112 0
v -112 -112 0
v -112 -96 0
v -96 -96 0
v -112 -112 0
v -128 -112 0
v -128 -96 0
v -112 -96 0
v -128 -112 0
v -144 -112 0
v -144 -96 0
v -128 -96 0
v -160 -128 0
v -176 -128 0
v -176 -112 0
v -160 -112 0
v -176 -128 0
v -192 -128 0
v -192 -112 0
v -176 -112 0
v -192 -128 0
v -208 -128 0
v -208 -112 0
v -192 -112 0
v -208 -128 0
v -224 -128 0
v -224 -112 0
v -208 -112 0
v -224 -128 0
v -240 -128 0
v -240 -112 0
v -224 -112 0
v -240 -128 0
v -256 -128 0
v -256 -112 0
v -240 -112 0
v -160 -144 0
v -176 -144 0
v -176 -128 0
v -160 -128 0
v -176 -144 0
v -192 -144 0
v -192 -128 0
v -176 -128 0
v -192 -144 0
v -208 -144 0
v -208 -128 0
v -192 -128 0
v -208 -144 0
v -224 -144 0
v -224 -128 0
v -208 -128 0
v -224 -144 0
v -240 -144 0
v -240 -128 0
v -224 -128 0
v -240 -144 0
v -256 -144 0
v -256 -128 0
v -240 -128 0
v -48 -176 0
v -64 -176 0
v -64 -160 0
v -48 -160 0
v -64 -176 0
v -80 -176 0
v -80 -160 0
v -64 -160 0
v -80 -176 0
v -96 -176 0
v -96 -160 0
v -80 -160 0
v -160 -176 0
v -176 -176 0
v -176 -160 0
v -160 -160 0
v -176 -176 0
v -192 -176 0
v -192 -160 0
v -176 -160 0
v -192 -176 0
v -208 -176 0
v -208 -160 0
v -192 -160 0
v -208 -176 0
v -224 -176 0
v -224 -160 0
v -208 -160 0
v -224 -176 0
v -240 -176 0
v -240 -160 0
v -224 -160 0
v -240 -176 0
v -256 -176 0
v -256 -160 0
v -240 -160 0
v -48 -192 0
v -64 -192 0
v -64 -176 0
v -48 -176 0
v -64 -192 0
v -80 -192 0
v -80 -176 0
v -64 -176 0
v -80 -192 0
v -96 -192 0
v -96 -176 0
v -80 -176 0
v -160 -192 0
v -176 -192 0
v -176 -176 0
v -160 -176 0
v -176 -192 0
v -192 -192 0
v -192 -176 0
v -176 -176 0
v -192 -192 0
v -208 -192 0
v -208 -176 0
v -192 -176 0
v -208 -192 0
v -224 -192 0
v -224 -176 0
v -208 -176 0
v -224 -192 0
v -240 -192 0
v -240 -176 0
v -224 -176 0
v -240 -192 0
v -256 -192 0
v -256 -176 0
v -240 -176 0
v -144 -224 0
v -160 -224 0
v -160 -208 0
v -144 -208 0

# Texture cooridinates (Count = 38)
vt 0.64 0.6111111
vt 0.68 0.6111111
vt 0.68 0.6666666
vt 0.64 0.6666666
vt 0.76 0.5
vt 0.8 0.5
vt 0.8 0.5555556
vt 0.76 0.5555556
vt 0.64 0.5555556
vt 0.68 0.5555556
vt 0.64 0.5
vt 0.68 0.5
vt 0.72 0.5
vt 0.72 0.5555556
vt 0.76 0.4444444
vt 0.8 0.4444444
vt 0.84 0.5
vt 0.84 0.5555556
vt 0.88 0.5
vt 0.88 0.5555556
vt 0.92 0.5
vt 0.92 0.5555556
vt 0.96 0.5
vt 0.96 0.5555556
vt 1 0.5
vt 1 0.5555556
vt 0.64 0.4444444
vt 0.68 0.4444444
vt 0.72 0.4444444
vt 0.84 0.4444444
vt 0.88 0.4444444
vt 0.92 0.4444444
vt 0.96 0.4444444
vt 1 0.4444444
vt 0.24 0.7777778
vt 0.28 0.7777778
vt 0.28 0.8333333
vt 0.24 0.8333333

# Normal
vn 0 0 -1

# Mesh description
g town1_store_mesh_0002

# Faces
f 1/1/1 2/2/1 3/3/1 4/4/1
f 5/1/1 6/2/1 7/3/1 8/4/1
f 9/5/1 10/6/1 11/7/1 12/8/1
f 13/9/1 14/10/1 15/2/1 16/1/1
f 17/5/1 18/6/1 19/7/1 20/8/1
f 21/5/1 22/6/1 23/7/1 24/8/1
f 25/5/1 26/6/1 27/7/1 28/8/1
f 29/11/1 30/12/1 31/10/1 32/9/1
f 33/12/1 34/13/1 35/14/1 36/10/1
f 37/13/1 38/5/1 39/8/1 40/14/1
f 41/9/1 42/10/1 43/2/1 44/1/1
f 45/15/1 46/16/1 47/6/1 48/5/1
f 49/6/1 50/17/1 51/18/1 52/7/1
f 53/17/1 54/19/1 55/20/1 56/18/1
f 57/19/1 58/21/1 59/22/1 60/20/1
f 61/21/1 62/23/1 63/24/1 64/22/1
f 65/23/1 66/25/1 67/26/1 68/24/1
f 69/15/1 70/16/1 71/6/1 72/5/1
f 73/15/1 74/16/1 75/6/1 76/5/1
f 77/15/1 78/16/1 79/6/1 80/5/1
f 81/27/1 82/28/1 83/12/1 84/11/1
f 85/28/1 86/29/1 87/13/1 88/12/1
f 89/29/1 90/15/1 91/5/1 92/13/1
f 93/16/1 94/30/1 95/17/1 96/6/1
f 97/30/1 98/31/1 99/19/1 100/17/1
f 101/31/1 102/32/1 103/21/1 104/19/1
f 105/32/1 106/33/1 107/23/1 108/21/1
f 109/33/1 110/34/1 111/25/1 112/23/1
f 113/11/1 114/12/1 115/10/1 116/9/1
f 117/12/1 118/13/1 119/14/1 120/10/1
f 121/13/1 122/5/1 123/8/1 124/14/1
f 125/11/1 126/12/1 127/10/1 128/9/1
f 129/12/1 130/13/1 131/14/1 132/10/1
f 133/13/1 134/5/1 135/8/1 136/14/1
f 137/27/1 138/28/1 139/12/1 140/11/1
f 141/28/1 142/29/1 143/13/1 144/12/1
f 145/29/1 146/15/1 147/5/1 148/13/1
f 149/27/1 150/28/1 151/12/1 152/11/1
f 153/28/1 154/29/1 155/13/1 156/12/1
f 157/29/1 158/15/1 159/5/1 160/13/1
f 161/11/1 162/12/1 163/10/1 164/9/1
f 165/12/1 166/13/1 167/14/1 168/10/1
f 169/13/1 170/5/1 171/8/1 172/14/1
f 173/11/1 174/12/1 175/10/1 176/9/1
f 177/12/1 178/13/1 179/14/1 180/10/1
f 181/13/1 182/5/1 183/8/1 184/14/1
f 185/11/1 186/12/1 187/10/1 188/9/1
f 189/12/1 190/13/1 191/14/1 192/10/1
f 193/13/1 194/5/1 195/8/1 196/14/1
f 197/27/1 198/28/1 199/12/1 200/11/1
f 201/28/1 202/29/1 203/13/1 204/12/1
f 205/29/1 206/15/1 207/5/1 208/13/1
f 209/27/1 210/28/1 211/12/1 212/11/1
f 213/28/1 214/29/1 215/13/1 216/12/1
f 217/29/1 218/15/1 219/5/1 220/13/1
f 221/27/1 222/28/1 223/12/1 224/11/1
f 225/28/1 226/29/1 227/13/1 228/12/1
f 229/29/1 230/15/1 231/5/1 232/13/1
f 233/35/1 234/36/1 235/37/1 236/38/1

