# Tiled2Unity generated file. Do not modify by hand.
# Wavefront file for 'playersHouse_firstFloor_mesh_0003.obj'

# Vertices (Count = 24)
v -48 -64 0
v -64 -64 0
v -64 -48 0
v -48 -48 0
v -48 -80 0
v -64 -80 0
v -64 -64 0
v -48 -64 0
v -48 -96 0
v -64 -96 0
v -64 -80 0
v -48 -80 0
v -48 -112 0
v -64 -112 0
v -64 -96 0
v -48 -96 0
v -48 -128 0
v -64 -128 0
v -64 -112 0
v -48 -112 0
v -48 -144 0
v -64 -144 0
v -64 -128 0
v -48 -128 0

# Texture cooridinates (Count = 16)
vt 0.2941177 0.6024845
vt 0.3529412 0.6024845
vt 0.3529412 0.7018633
vt 0.2941177 0.7018633
vt 0.2941177 0.5031056
vt 0.3529412 0.5031056
vt 0.2941177 0.4037267
vt 0.3529412 0.4037267
vt 0.1176471 0.6024845
vt 0.1764706 0.6024845
vt 0.1764706 0.7018633
vt 0.1176471 0.7018633
vt 0.1176471 0.5031056
vt 0.1764706 0.5031056
vt 0.1176471 0.4037267
vt 0.1764706 0.4037267

# Normal
vn 0 0 -1

# Mesh description
g playersHouse_firstFloor_mesh_0003

# Faces
f 1/1/1 2/2/1 3/3/1 4/4/1
f 5/5/1 6/6/1 7/2/1 8/1/1
f 9/7/1 10/8/1 11/6/1 12/5/1
f 13/9/1 14/10/1 15/11/1 16/12/1
f 17/13/1 18/14/1 19/10/1 20/9/1
f 21/15/1 22/16/1 23/14/1 24/13/1

