# Tiled2Unity generated file. Do not modify by hand.
# Wavefront file for 'playersHouse_firstFloor_mesh_0003.obj'

# Vertices (Count = 68)
v -128 -32 0
v -144 -32 0
v -144 -16 0
v -128 -16 0
v -112 -96 0
v -128 -96 0
v -128 -80 0
v -112 -80 0
v -128 -96 0
v -144 -96 0
v -144 -80 0
v -128 -80 0
v -144 -96 0
v -160 -96 0
v -160 -80 0
v -144 -80 0
v -48 -112 0
v -64 -112 0
v -64 -96 0
v -48 -96 0
v -64 -112 0
v -80 -112 0
v -80 -96 0
v -64 -96 0
v -112 -112 0
v -128 -112 0
v -128 -96 0
v -112 -96 0
v -128 -112 0
v -144 -112 0
v -144 -96 0
v -128 -96 0
v -144 -112 0
v -160 -112 0
v -160 -96 0
v -144 -96 0
v -48 -128 0
v -64 -128 0
v -64 -112 0
v -48 -112 0
v -64 -128 0
v -80 -128 0
v -80 -112 0
v -64 -112 0
v -176 -128 0
v -192 -128 0
v -192 -112 0
v -176 -112 0
v -48 -144 0
v -64 -144 0
v -64 -128 0
v -48 -128 0
v -64 -144 0
v -80 -144 0
v -80 -128 0
v -64 -128 0
v -112 -144 0
v -128 -144 0
v -128 -128 0
v -112 -128 0
v -176 -144 0
v -192 -144 0
v -192 -128 0
v -176 -128 0
v -112 -160 0
v -128 -160 0
v -128 -144 0
v -112 -144 0

# Texture cooridinates (Count = 36)
vt 0.32 0.5
vt 0.36 0.5
vt 0.36 0.5555556
vt 0.32 0.5555556
vt 0.2 0.5
vt 0.24 0.5
vt 0.24 0.5555556
vt 0.2 0.5555556
vt 0.28 0.5
vt 0.28 0.5555556
vt 0.12 0.7777778
vt 0.16 0.7777778
vt 0.16 0.8333333
vt 0.12 0.8333333
vt 0.2 0.7777778
vt 0.2 0.8333333
vt 0.2 0.4444444
vt 0.24 0.4444444
vt 0.28 0.4444444
vt 0.32 0.4444444
vt 0.12 0.7222222
vt 0.16 0.7222222
vt 0.2 0.7222222
vt 0.32 0.6111111
vt 0.36 0.6111111
vt 0.36 0.6666666
vt 0.32 0.6666666
vt 0.12 0.6666666
vt 0.16 0.6666666
vt 0.2 0.6666666
vt 0.24 0.8333333
vt 0.28 0.8333333
vt 0.28 0.8888889
vt 0.24 0.8888889
vt 0.24 0.7777778
vt 0.28 0.7777778

# Normal
vn 0 0 -1

# Mesh description
g playersHouse_firstFloor_mesh_0003

# Faces
f 1/1/1 2/2/1 3/3/1 4/4/1
f 5/5/1 6/6/1 7/7/1 8/8/1
f 9/6/1 10/9/1 11/10/1 12/7/1
f 13/9/1 14/1/1 15/4/1 16/10/1
f 17/11/1 18/12/1 19/13/1 20/14/1
f 21/12/1 22/15/1 23/16/1 24/13/1
f 25/17/1 26/18/1 27/6/1 28/5/1
f 29/18/1 30/19/1 31/9/1 32/6/1
f 33/19/1 34/20/1 35/1/1 36/9/1
f 37/21/1 38/22/1 39/12/1 40/11/1
f 41/22/1 42/23/1 43/15/1 44/12/1
f 45/24/1 46/25/1 47/26/1 48/27/1
f 49/28/1 50/29/1 51/22/1 52/21/1
f 53/29/1 54/30/1 55/23/1 56/22/1
f 57/31/1 58/32/1 59/33/1 60/34/1
f 61/4/1 62/3/1 63/25/1 64/24/1
f 65/35/1 66/36/1 67/32/1 68/31/1

