# Tiled2Unity generated file. Do not modify by hand.
# Wavefront file for 'playersHouse_firstFloor_mesh_0002.obj'

# Vertices (Count = 172)
v -48 -32 0
v -64 -32 0
v -64 -16 0
v -48 -16 0
v -64 -32 0
v -80 -32 0
v -80 -16 0
v -64 -16 0
v -80 -32 0
v -96 -32 0
v -96 -16 0
v -80 -16 0
v -160 -32 0
v -176 -32 0
v -176 -16 0
v -160 -16 0
v -176 -32 0
v -192 -32 0
v -192 -16 0
v -176 -16 0
v -48 -48 0
v -64 -48 0
v -64 -32 0
v -48 -32 0
v -64 -48 0
v -80 -48 0
v -80 -32 0
v -64 -32 0
v -80 -48 0
v -96 -48 0
v -96 -32 0
v -80 -32 0
v -96 -48 0
v -112 -48 0
v -112 -32 0
v -96 -32 0
v -112 -48 0
v -128 -48 0
v -128 -32 0
v -112 -32 0
v -128 -48 0
v -144 -48 0
v -144 -32 0
v -128 -32 0
v -144 -48 0
v -160 -48 0
v -160 -32 0
v -144 -32 0
v -160 -48 0
v -176 -48 0
v -176 -32 0
v -160 -32 0
v -176 -48 0
v -192 -48 0
v -192 -32 0
v -176 -32 0
v -48 -64 0
v -64 -64 0
v -64 -48 0
v -48 -48 0
v -64 -64 0
v -80 -64 0
v -80 -48 0
v -64 -48 0
v -80 -64 0
v -96 -64 0
v -96 -48 0
v -80 -48 0
v -96 -64 0
v -112 -64 0
v -112 -48 0
v -96 -48 0
v -112 -64 0
v -128 -64 0
v -128 -48 0
v -112 -48 0
v -128 -64 0
v -144 -64 0
v -144 -48 0
v -128 -48 0
v -144 -64 0
v -160 -64 0
v -160 -48 0
v -144 -48 0
v -160 -64 0
v -176 -64 0
v -176 -48 0
v -160 -48 0
v -176 -64 0
v -192 -64 0
v -192 -48 0
v -176 -48 0
v -80 -80 0
v -96 -80 0
v -96 -64 0
v -80 -64 0
v -96 -80 0
v -112 -80 0
v -112 -64 0
v -96 -64 0
v -112 -80 0
v -128 -80 0
v -128 -64 0
v -112 -64 0
v -128 -80 0
v -144 -80 0
v -144 -64 0
v -128 -64 0
v -144 -80 0
v -160 -80 0
v -160 -64 0
v -144 -64 0
v -80 -96 0
v -96 -96 0
v -96 -80 0
v -80 -80 0
v -96 -96 0
v -112 -96 0
v -112 -80 0
v -96 -80 0
v -112 -96 0
v -128 -96 0
v -128 -80 0
v -112 -80 0
v -128 -96 0
v -144 -96 0
v -144 -80 0
v -128 -80 0
v -144 -96 0
v -160 -96 0
v -160 -80 0
v -144 -80 0
v -80 -112 0
v -96 -112 0
v -96 -96 0
v -80 -96 0
v -96 -112 0
v -112 -112 0
v -112 -96 0
v -96 -96 0
v -112 -112 0
v -128 -112 0
v -128 -96 0
v -112 -96 0
v -128 -112 0
v -144 -112 0
v -144 -96 0
v -128 -96 0
v -144 -112 0
v -160 -112 0
v -160 -96 0
v -144 -96 0
v -80 -128 0
v -96 -128 0
v -96 -112 0
v -80 -112 0
v -96 -128 0
v -112 -128 0
v -112 -112 0
v -96 -112 0
v -112 -128 0
v -128 -128 0
v -128 -112 0
v -112 -112 0
v -128 -128 0
v -144 -128 0
v -144 -112 0
v -128 -112 0
v -144 -128 0
v -160 -128 0
v -160 -112 0
v -144 -112 0

# Texture cooridinates (Count = 53)
vt 0.08 0.7777778
vt 0.12 0.7777778
vt 0.12 0.8333333
vt 0.08 0.8333333
vt 0.16 0.7777778
vt 0.16 0.8333333
vt 0.2 0.7777778
vt 0.2 0.8333333
vt 0.28 0.7777778
vt 0.32 0.7777778
vt 0.32 0.8333333
vt 0.28 0.8333333
vt 0.36 0.7777778
vt 0.36 0.8333333
vt 0.08 0.7222222
vt 0.12 0.7222222
vt 0.16 0.7222222
vt 0.2 0.7222222
vt 0.24 0.7222222
vt 0.24 0.7777778
vt 0.2 0.6111111
vt 0.24 0.6111111
vt 0.24 0.6666666
vt 0.2 0.6666666
vt 0.28 0.6111111
vt 0.28 0.6666666
vt 0.32 0.6111111
vt 0.32 0.6666666
vt 0.28 0.7222222
vt 0.32 0.7222222
vt 0.36 0.7222222
vt 0.08 0.6666666
vt 0.12 0.6666666
vt 0.16 0.6666666
vt 0.2 0.5555556
vt 0.24 0.5555556
vt 0.28 0.5555556
vt 0.32 0.5555556
vt 0.36 0.6666666
vt 0 0.9444444
vt 0.04 0.9444444
vt 0.04 1
vt 0 1
vt 0.08 0.9444444
vt 0.08 1
vt 0.12 0.9444444
vt 0.12 1
vt 0 0.8888889
vt 0.04 0.8888889
vt 0.08 0.8888889
vt 0.12 0.8888889
vt 0 0.8333333
vt 0.04 0.8333333

# Normal
vn 0 0 -1

# Mesh description
g playersHouse_firstFloor_mesh_0002

# Faces
f 1/1/1 2/2/1 3/3/1 4/4/1
f 5/2/1 6/5/1 7/6/1 8/3/1
f 9/5/1 10/7/1 11/8/1 12/6/1
f 13/9/1 14/10/1 15/11/1 16/12/1
f 17/10/1 18/13/1 19/14/1 20/11/1
f 21/15/1 22/16/1 23/2/1 24/1/1
f 25/16/1 26/17/1 27/5/1 28/2/1
f 29/17/1 30/18/1 31/7/1 32/5/1
f 33/18/1 34/19/1 35/20/1 36/7/1
f 37/21/1 38/22/1 39/23/1 40/24/1
f 41/22/1 42/25/1 43/26/1 44/23/1
f 45/25/1 46/27/1 47/28/1 48/26/1
f 49/29/1 50/30/1 51/10/1 52/9/1
f 53/30/1 54/31/1 55/13/1 56/10/1
f 57/32/1 58/33/1 59/16/1 60/15/1
f 61/33/1 62/34/1 63/17/1 64/16/1
f 65/34/1 66/24/1 67/18/1 68/17/1
f 69/24/1 70/23/1 71/19/1 72/18/1
f 73/35/1 74/36/1 75/22/1 76/21/1
f 77/36/1 78/37/1 79/25/1 80/22/1
f 81/37/1 82/38/1 83/27/1 84/25/1
f 85/26/1 86/28/1 87/30/1 88/29/1
f 89/28/1 90/39/1 91/31/1 92/30/1
f 93/40/1 94/41/1 95/42/1 96/43/1
f 97/41/1 98/44/1 99/45/1 100/42/1
f 101/41/1 102/44/1 103/45/1 104/42/1
f 105/41/1 106/44/1 107/45/1 108/42/1
f 109/44/1 110/46/1 111/47/1 112/45/1
f 113/48/1 114/49/1 115/41/1 116/40/1
f 117/49/1 118/50/1 119/44/1 120/41/1
f 121/49/1 122/50/1 123/44/1 124/41/1
f 125/49/1 126/50/1 127/44/1 128/41/1
f 129/50/1 130/51/1 131/46/1 132/44/1
f 133/48/1 134/49/1 135/41/1 136/40/1
f 137/49/1 138/50/1 139/44/1 140/41/1
f 141/49/1 142/50/1 143/44/1 144/41/1
f 145/49/1 146/50/1 147/44/1 148/41/1
f 149/50/1 150/51/1 151/46/1 152/44/1
f 153/52/1 154/53/1 155/49/1 156/48/1
f 157/53/1 158/4/1 159/50/1 160/49/1
f 161/53/1 162/4/1 163/50/1 164/49/1
f 165/53/1 166/4/1 167/50/1 168/49/1
f 169/4/1 170/3/1 171/51/1 172/50/1

