# Tiled2Unity generated file. Do not modify by hand.
# Wavefront file for 'playersHouse_firstFloor_mesh_0002.obj'

# Vertices (Count = 192)
v -48 -32 0
v -64 -32 0
v -64 -16 0
v -48 -16 0
v -64 -32 0
v -80 -32 0
v -80 -16 0
v -64 -16 0
v -80 -32 0
v -96 -32 0
v -96 -16 0
v -80 -16 0
v -96 -32 0
v -112 -32 0
v -112 -16 0
v -96 -16 0
v -128 -32 0
v -144 -32 0
v -144 -16 0
v -128 -16 0
v -144 -32 0
v -160 -32 0
v -160 -16 0
v -144 -16 0
v -160 -32 0
v -176 -32 0
v -176 -16 0
v -160 -16 0
v -176 -32 0
v -192 -32 0
v -192 -16 0
v -176 -16 0
v -48 -48 0
v -64 -48 0
v -64 -32 0
v -48 -32 0
v -64 -48 0
v -80 -48 0
v -80 -32 0
v -64 -32 0
v -80 -48 0
v -96 -48 0
v -96 -32 0
v -80 -32 0
v -96 -48 0
v -112 -48 0
v -112 -32 0
v -96 -32 0
v -128 -48 0
v -144 -48 0
v -144 -32 0
v -128 -32 0
v -144 -48 0
v -160 -48 0
v -160 -32 0
v -144 -32 0
v -160 -48 0
v -176 -48 0
v -176 -32 0
v -160 -32 0
v -176 -48 0
v -192 -48 0
v -192 -32 0
v -176 -32 0
v -48 -64 0
v -64 -64 0
v -64 -48 0
v -48 -48 0
v -64 -64 0
v -80 -64 0
v -80 -48 0
v -64 -48 0
v -80 -64 0
v -96 -64 0
v -96 -48 0
v -80 -48 0
v -96 -64 0
v -112 -64 0
v -112 -48 0
v -96 -48 0
v -128 -64 0
v -144 -64 0
v -144 -48 0
v -128 -48 0
v -144 -64 0
v -160 -64 0
v -160 -48 0
v -144 -48 0
v -160 -64 0
v -176 -64 0
v -176 -48 0
v -160 -48 0
v -176 -64 0
v -192 -64 0
v -192 -48 0
v -176 -48 0
v -80 -80 0
v -96 -80 0
v -96 -64 0
v -80 -64 0
v -96 -80 0
v -112 -80 0
v -112 -64 0
v -96 -64 0
v -112 -80 0
v -128 -80 0
v -128 -64 0
v -112 -64 0
v -128 -80 0
v -144 -80 0
v -144 -64 0
v -128 -64 0
v -144 -80 0
v -160 -80 0
v -160 -64 0
v -144 -64 0
v -160 -80 0
v -176 -80 0
v -176 -64 0
v -160 -64 0
v -80 -96 0
v -96 -96 0
v -96 -80 0
v -80 -80 0
v -96 -96 0
v -112 -96 0
v -112 -80 0
v -96 -80 0
v -112 -96 0
v -128 -96 0
v -128 -80 0
v -112 -80 0
v -128 -96 0
v -144 -96 0
v -144 -80 0
v -128 -80 0
v -144 -96 0
v -160 -96 0
v -160 -80 0
v -144 -80 0
v -160 -96 0
v -176 -96 0
v -176 -80 0
v -160 -80 0
v -80 -112 0
v -96 -112 0
v -96 -96 0
v -80 -96 0
v -96 -112 0
v -112 -112 0
v -112 -96 0
v -96 -96 0
v -112 -112 0
v -128 -112 0
v -128 -96 0
v -112 -96 0
v -128 -112 0
v -144 -112 0
v -144 -96 0
v -128 -96 0
v -144 -112 0
v -160 -112 0
v -160 -96 0
v -144 -96 0
v -160 -112 0
v -176 -112 0
v -176 -96 0
v -160 -96 0
v -80 -128 0
v -96 -128 0
v -96 -112 0
v -80 -112 0
v -96 -128 0
v -112 -128 0
v -112 -112 0
v -96 -112 0
v -112 -128 0
v -128 -128 0
v -128 -112 0
v -112 -112 0
v -128 -128 0
v -144 -128 0
v -144 -112 0
v -128 -112 0
v -144 -128 0
v -160 -128 0
v -160 -112 0
v -144 -112 0
v -160 -128 0
v -176 -128 0
v -176 -112 0
v -160 -112 0

# Texture cooridinates (Count = 46)
vt 0.1176471 0.6024845
vt 0.1764706 0.6024845
vt 0.1764706 0.7018633
vt 0.1176471 0.7018633
vt 0.2352941 0.6024845
vt 0.2941177 0.6024845
vt 0.2941177 0.7018633
vt 0.2352941 0.7018633
vt 0.3529412 0.6024845
vt 0.3529412 0.7018633
vt 0.4117647 0.6024845
vt 0.4705882 0.6024845
vt 0.4705882 0.7018633
vt 0.4117647 0.7018633
vt 0.5294118 0.6024845
vt 0.5294118 0.7018633
vt 0.1176471 0.5031056
vt 0.1764706 0.5031056
vt 0.2352941 0.5031056
vt 0.2941177 0.5031056
vt 0.3529412 0.5031056
vt 0.4117647 0.5031056
vt 0.4705882 0.5031056
vt 0.5294118 0.5031056
vt 0.1176471 0.4037267
vt 0.1764706 0.4037267
vt 0.2352941 0.4037267
vt 0.2941177 0.4037267
vt 0.3529412 0.4037267
vt 0.4117647 0.4037267
vt 0.4705882 0.4037267
vt 0.5294118 0.4037267
vt 0 0.9006211
vt 0.05882353 0.9006211
vt 0.05882353 1
vt 0 1
vt 0.1176471 0.9006211
vt 0.1176471 1
vt 0.1764706 0.9006211
vt 0.1764706 1
vt 0 0.8012422
vt 0.05882353 0.8012422
vt 0.1176471 0.8012422
vt 0.1764706 0.8012422
vt 0 0.7018633
vt 0.05882353 0.7018633

# Normal
vn 0 0 -1

# Mesh description
g playersHouse_firstFloor_mesh_0002

# Faces
f 1/1/1 2/2/1 3/3/1 4/4/1
f 5/5/1 6/6/1 7/7/1 8/8/1
f 9/6/1 10/9/1 11/10/1 12/7/1
f 13/1/1 14/2/1 15/3/1 16/4/1
f 17/2/1 18/5/1 19/8/1 20/3/1
f 21/5/1 22/6/1 23/7/1 24/8/1
f 25/11/1 26/12/1 27/13/1 28/14/1
f 29/12/1 30/15/1 31/16/1 32/13/1
f 33/17/1 34/18/1 35/2/1 36/1/1
f 37/19/1 38/20/1 39/6/1 40/5/1
f 41/20/1 42/21/1 43/9/1 44/6/1
f 45/17/1 46/18/1 47/2/1 48/1/1
f 49/18/1 50/19/1 51/5/1 52/2/1
f 53/19/1 54/20/1 55/6/1 56/5/1
f 57/22/1 58/23/1 59/12/1 60/11/1
f 61/23/1 62/24/1 63/15/1 64/12/1
f 65/25/1 66/26/1 67/18/1 68/17/1
f 69/27/1 70/28/1 71/20/1 72/19/1
f 73/28/1 74/29/1 75/21/1 76/20/1
f 77/25/1 78/26/1 79/18/1 80/17/1
f 81/26/1 82/27/1 83/19/1 84/18/1
f 85/27/1 86/28/1 87/20/1 88/19/1
f 89/30/1 90/31/1 91/23/1 92/22/1
f 93/31/1 94/32/1 95/24/1 96/23/1
f 97/33/1 98/34/1 99/35/1 100/36/1
f 101/34/1 102/37/1 103/38/1 104/35/1
f 105/34/1 106/37/1 107/38/1 108/35/1
f 109/34/1 110/37/1 111/38/1 112/35/1
f 113/34/1 114/37/1 115/38/1 116/35/1
f 117/37/1 118/39/1 119/40/1 120/38/1
f 121/41/1 122/42/1 123/34/1 124/33/1
f 125/42/1 126/43/1 127/37/1 128/34/1
f 129/42/1 130/43/1 131/37/1 132/34/1
f 133/42/1 134/43/1 135/37/1 136/34/1
f 137/42/1 138/43/1 139/37/1 140/34/1
f 141/43/1 142/44/1 143/39/1 144/37/1
f 145/41/1 146/42/1 147/34/1 148/33/1
f 149/42/1 150/43/1 151/37/1 152/34/1
f 153/42/1 154/43/1 155/37/1 156/34/1
f 157/42/1 158/43/1 159/37/1 160/34/1
f 161/42/1 162/43/1 163/37/1 164/34/1
f 165/43/1 166/44/1 167/39/1 168/37/1
f 169/45/1 170/46/1 171/42/1 172/41/1
f 173/46/1 174/4/1 175/43/1 176/42/1
f 177/46/1 178/4/1 179/43/1 180/42/1
f 181/46/1 182/4/1 183/43/1 184/42/1
f 185/46/1 186/4/1 187/43/1 188/42/1
f 189/4/1 190/3/1 191/44/1 192/43/1

