# Tiled2Unity generated file. Do not modify by hand.
# Wavefront file for 'town1_mesh_0003.obj'

# Vertices (Count = 32)
v -240 -80 0
v -256 -80 0
v -256 -64 0
v -240 -64 0
v -320 -128 0
v -336 -128 0
v -336 -112 0
v -320 -112 0
v -336 -160 0
v -352 -160 0
v -352 -144 0
v -336 -144 0
v -368 -160 0
v -384 -160 0
v -384 -144 0
v -368 -144 0
v -160 -176 0
v -176 -176 0
v -176 -160 0
v -160 -160 0
v -352 -176 0
v -368 -176 0
v -368 -160 0
v -352 -160 0
v -160 -192 0
v -176 -192 0
v -176 -176 0
v -160 -176 0
v -368 -208 0
v -384 -208 0
v -384 -192 0
v -368 -192 0

# Texture cooridinates (Count = 4)
vt 0 0.4037267
vt 0.05882353 0.4037267
vt 0.05882353 0.5031056
vt 0 0.5031056

# Normal
vn 0 0 -1

# Mesh description
g town1_mesh_0003

# Faces
f 1/1/1 2/2/1 3/3/1 4/4/1
f 5/1/1 6/2/1 7/3/1 8/4/1
f 9/2/1 10/1/1 11/4/1 12/3/1
f 13/2/1 14/1/1 15/4/1 16/3/1
f 17/1/1 18/2/1 19/3/1 20/4/1
f 21/1/1 22/2/1 23/3/1 24/4/1
f 25/4/1 26/3/1 27/2/1 28/1/1
f 29/1/1 30/2/1 31/3/1 32/4/1

