# Tiled2Unity generated file. Do not modify by hand.
# Wavefront file for 'town1_mesh_0002.obj'

# Vertices (Count = 860)
v -528 -96 0
v -544 -96 0
v -544 -80 0
v -528 -80 0
v -544 -96 0
v -560 -96 0
v -560 -80 0
v -544 -80 0
v -528 -112 0
v -544 -112 0
v -544 -96 0
v -528 -96 0
v -544 -112 0
v -560 -112 0
v -560 -96 0
v -544 -96 0
v -496 -128 0
v -512 -128 0
v -512 -112 0
v -496 -112 0
v -512 -128 0
v -528 -128 0
v -528 -112 0
v -512 -112 0
v -528 -128 0
v -544 -128 0
v -544 -112 0
v -528 -112 0
v -544 -128 0
v -560 -128 0
v -560 -112 0
v -544 -112 0
v -480 -144 0
v -496 -144 0
v -496 -128 0
v -480 -128 0
v -496 -144 0
v -512 -144 0
v -512 -128 0
v -496 -128 0
v -512 -144 0
v -528 -144 0
v -528 -128 0
v -512 -128 0
v -528 -144 0
v -544 -144 0
v -544 -128 0
v -528 -128 0
v -544 -144 0
v -560 -144 0
v -560 -128 0
v -544 -128 0
v -464 -160 0
v -480 -160 0
v -480 -144 0
v -464 -144 0
v -480 -160 0
v -496 -160 0
v -496 -144 0
v -480 -144 0
v -496 -160 0
v -512 -160 0
v -512 -144 0
v -496 -144 0
v -512 -160 0
v -528 -160 0
v -528 -144 0
v -512 -144 0
v -528 -160 0
v -544 -160 0
v -544 -144 0
v -528 -144 0
v -544 -160 0
v -560 -160 0
v -560 -144 0
v -544 -144 0
v -464 -176 0
v -480 -176 0
v -480 -160 0
v -464 -160 0
v -480 -176 0
v -496 -176 0
v -496 -160 0
v -480 -160 0
v -496 -176 0
v -512 -176 0
v -512 -160 0
v -496 -160 0
v -512 -176 0
v -528 -176 0
v -528 -160 0
v -512 -160 0
v -528 -176 0
v -544 -176 0
v -544 -160 0
v -528 -160 0
v -544 -176 0
v -560 -176 0
v -560 -160 0
v -544 -160 0
v -240 -192 0
v -256 -192 0
v -256 -176 0
v -240 -176 0
v -256 -192 0
v -272 -192 0
v -272 -176 0
v -256 -176 0
v -272 -192 0
v -288 -192 0
v -288 -176 0
v -272 -176 0
v -288 -192 0
v -304 -192 0
v -304 -176 0
v -288 -176 0
v -304 -192 0
v -320 -192 0
v -320 -176 0
v -304 -176 0
v -320 -192 0
v -336 -192 0
v -336 -176 0
v -320 -176 0
v -432 -192 0
v -448 -192 0
v -448 -176 0
v -432 -176 0
v -448 -192 0
v -464 -192 0
v -464 -176 0
v -448 -176 0
v -464 -192 0
v -480 -192 0
v -480 -176 0
v -464 -176 0
v -480 -192 0
v -496 -192 0
v -496 -176 0
v -480 -176 0
v -496 -192 0
v -512 -192 0
v -512 -176 0
v -496 -176 0
v -512 -192 0
v -528 -192 0
v -528 -176 0
v -512 -176 0
v -528 -192 0
v -544 -192 0
v -544 -176 0
v -528 -176 0
v -544 -192 0
v -560 -192 0
v -560 -176 0
v -544 -176 0
v -224 -208 0
v -240 -208 0
v -240 -192 0
v -224 -192 0
v -240 -208 0
v -256 -208 0
v -256 -192 0
v -240 -192 0
v -256 -208 0
v -272 -208 0
v -272 -192 0
v -256 -192 0
v -272 -208 0
v -288 -208 0
v -288 -192 0
v -272 -192 0
v -288 -208 0
v -304 -208 0
v -304 -192 0
v -288 -192 0
v -304 -208 0
v -320 -208 0
v -320 -192 0
v -304 -192 0
v -320 -208 0
v -336 -208 0
v -336 -192 0
v -320 -192 0
v -336 -208 0
v -352 -208 0
v -352 -192 0
v -336 -192 0
v -416 -208 0
v -432 -208 0
v -432 -192 0
v -416 -192 0
v -432 -208 0
v -448 -208 0
v -448 -192 0
v -432 -192 0
v -448 -208 0
v -464 -208 0
v -464 -192 0
v -448 -192 0
v -464 -208 0
v -480 -208 0
v -480 -192 0
v -464 -192 0
v -480 -208 0
v -496 -208 0
v -496 -192 0
v -480 -192 0
v -496 -208 0
v -512 -208 0
v -512 -192 0
v -496 -192 0
v -512 -208 0
v -528 -208 0
v -528 -192 0
v -512 -192 0
v -528 -208 0
v -544 -208 0
v -544 -192 0
v -528 -192 0
v -544 -208 0
v -560 -208 0
v -560 -192 0
v -544 -192 0
v -224 -224 0
v -240 -224 0
v -240 -208 0
v -224 -208 0
v -240 -224 0
v -256 -224 0
v -256 -208 0
v -240 -208 0
v -256 -224 0
v -272 -224 0
v -272 -208 0
v -256 -208 0
v -272 -224 0
v -288 -224 0
v -288 -208 0
v -272 -208 0
v -288 -224 0
v -304 -224 0
v -304 -208 0
v -288 -208 0
v -304 -224 0
v -320 -224 0
v -320 -208 0
v -304 -208 0
v -320 -224 0
v -336 -224 0
v -336 -208 0
v -320 -208 0
v -336 -224 0
v -352 -224 0
v -352 -208 0
v -336 -208 0
v -416 -224 0
v -432 -224 0
v -432 -208 0
v -416 -208 0
v -432 -224 0
v -448 -224 0
v -448 -208 0
v -432 -208 0
v -448 -224 0
v -464 -224 0
v -464 -208 0
v -448 -208 0
v -464 -224 0
v -480 -224 0
v -480 -208 0
v -464 -208 0
v -480 -224 0
v -496 -224 0
v -496 -208 0
v -480 -208 0
v -496 -224 0
v -512 -224 0
v -512 -208 0
v -496 -208 0
v -512 -224 0
v -528 -224 0
v -528 -208 0
v -512 -208 0
v -528 -224 0
v -544 -224 0
v -544 -208 0
v -528 -208 0
v -544 -224 0
v -560 -224 0
v -560 -208 0
v -544 -208 0
v -224 -240 0
v -240 -240 0
v -240 -224 0
v -224 -224 0
v -240 -240 0
v -256 -240 0
v -256 -224 0
v -240 -224 0
v -256 -240 0
v -272 -240 0
v -272 -224 0
v -256 -224 0
v -272 -240 0
v -288 -240 0
v -288 -224 0
v -272 -224 0
v -288 -240 0
v -304 -240 0
v -304 -224 0
v -288 -224 0
v -304 -240 0
v -320 -240 0
v -320 -224 0
v -304 -224 0
v -320 -240 0
v -336 -240 0
v -336 -224 0
v -320 -224 0
v -336 -240 0
v -352 -240 0
v -352 -224 0
v -336 -224 0
v -400 -240 0
v -416 -240 0
v -416 -224 0
v -400 -224 0
v -416 -240 0
v -432 -240 0
v -432 -224 0
v -416 -224 0
v -432 -240 0
v -448 -240 0
v -448 -224 0
v -432 -224 0
v -448 -240 0
v -464 -240 0
v -464 -224 0
v -448 -224 0
v -464 -240 0
v -480 -240 0
v -480 -224 0
v -464 -224 0
v -480 -240 0
v -496 -240 0
v -496 -224 0
v -480 -224 0
v -496 -240 0
v -512 -240 0
v -512 -224 0
v -496 -224 0
v -512 -240 0
v -528 -240 0
v -528 -224 0
v -512 -224 0
v -528 -240 0
v -544 -240 0
v -544 -224 0
v -528 -224 0
v -544 -240 0
v -560 -240 0
v -560 -224 0
v -544 -224 0
v -224 -256 0
v -240 -256 0
v -240 -240 0
v -224 -240 0
v -240 -256 0
v -256 -256 0
v -256 -240 0
v -240 -240 0
v -256 -256 0
v -272 -256 0
v -272 -240 0
v -256 -240 0
v -272 -256 0
v -288 -256 0
v -288 -240 0
v -272 -240 0
v -288 -256 0
v -304 -256 0
v -304 -240 0
v -288 -240 0
v -304 -256 0
v -320 -256 0
v -320 -240 0
v -304 -240 0
v -320 -256 0
v -336 -256 0
v -336 -240 0
v -320 -240 0
v -336 -256 0
v -352 -256 0
v -352 -240 0
v -336 -240 0
v -400 -256 0
v -416 -256 0
v -416 -240 0
v -400 -240 0
v -416 -256 0
v -432 -256 0
v -432 -240 0
v -416 -240 0
v -432 -256 0
v -448 -256 0
v -448 -240 0
v -432 -240 0
v -448 -256 0
v -464 -256 0
v -464 -240 0
v -448 -240 0
v -464 -256 0
v -480 -256 0
v -480 -240 0
v -464 -240 0
v -480 -256 0
v -496 -256 0
v -496 -240 0
v -480 -240 0
v -496 -256 0
v -512 -256 0
v -512 -240 0
v -496 -240 0
v -512 -256 0
v -528 -256 0
v -528 -240 0
v -512 -240 0
v -528 -256 0
v -544 -256 0
v -544 -240 0
v -528 -240 0
v -544 -256 0
v -560 -256 0
v -560 -240 0
v -544 -240 0
v -224 -272 0
v -240 -272 0
v -240 -256 0
v -224 -256 0
v -240 -272 0
v -256 -272 0
v -256 -256 0
v -240 -256 0
v -256 -272 0
v -272 -272 0
v -272 -256 0
v -256 -256 0
v -272 -272 0
v -288 -272 0
v -288 -256 0
v -272 -256 0
v -288 -272 0
v -304 -272 0
v -304 -256 0
v -288 -256 0
v -304 -272 0
v -320 -272 0
v -320 -256 0
v -304 -256 0
v -320 -272 0
v -336 -272 0
v -336 -256 0
v -320 -256 0
v -336 -272 0
v -352 -272 0
v -352 -256 0
v -336 -256 0
v -400 -272 0
v -416 -272 0
v -416 -256 0
v -400 -256 0
v -416 -272 0
v -432 -272 0
v -432 -256 0
v -416 -256 0
v -432 -272 0
v -448 -272 0
v -448 -256 0
v -432 -256 0
v -448 -272 0
v -464 -272 0
v -464 -256 0
v -448 -256 0
v -464 -272 0
v -480 -272 0
v -480 -256 0
v -464 -256 0
v -480 -272 0
v -496 -272 0
v -496 -256 0
v -480 -256 0
v -496 -272 0
v -512 -272 0
v -512 -256 0
v -496 -256 0
v -512 -272 0
v -528 -272 0
v -528 -256 0
v -512 -256 0
v -528 -272 0
v -544 -272 0
v -544 -256 0
v -528 -256 0
v -544 -272 0
v -560 -272 0
v -560 -256 0
v -544 -256 0
v -240 -288 0
v -256 -288 0
v -256 -272 0
v -240 -272 0
v -256 -288 0
v -272 -288 0
v -272 -272 0
v -256 -272 0
v -272 -288 0
v -288 -288 0
v -288 -272 0
v -272 -272 0
v -288 -288 0
v -304 -288 0
v -304 -272 0
v -288 -272 0
v -304 -288 0
v -320 -288 0
v -320 -272 0
v -304 -272 0
v -320 -288 0
v -336 -288 0
v -336 -272 0
v -320 -272 0
v -400 -288 0
v -416 -288 0
v -416 -272 0
v -400 -272 0
v -416 -288 0
v -432 -288 0
v -432 -272 0
v -416 -272 0
v -432 -288 0
v -448 -288 0
v -448 -272 0
v -432 -272 0
v -448 -288 0
v -464 -288 0
v -464 -272 0
v -448 -272 0
v -464 -288 0
v -480 -288 0
v -480 -272 0
v -464 -272 0
v -480 -288 0
v -496 -288 0
v -496 -272 0
v -480 -272 0
v -496 -288 0
v -512 -288 0
v -512 -272 0
v -496 -272 0
v -512 -288 0
v -528 -288 0
v -528 -272 0
v -512 -272 0
v -528 -288 0
v -544 -288 0
v -544 -272 0
v -528 -272 0
v -544 -288 0
v -560 -288 0
v -560 -272 0
v -544 -272 0
v -400 -304 0
v -416 -304 0
v -416 -288 0
v -400 -288 0
v -416 -304 0
v -432 -304 0
v -432 -288 0
v -416 -288 0
v -432 -304 0
v -448 -304 0
v -448 -288 0
v -432 -288 0
v -448 -304 0
v -464 -304 0
v -464 -288 0
v -448 -288 0
v -464 -304 0
v -480 -304 0
v -480 -288 0
v -464 -288 0
v -480 -304 0
v -496 -304 0
v -496 -288 0
v -480 -288 0
v -496 -304 0
v -512 -304 0
v -512 -288 0
v -496 -288 0
v -512 -304 0
v -528 -304 0
v -528 -288 0
v -512 -288 0
v -528 -304 0
v -544 -304 0
v -544 -288 0
v -528 -288 0
v -544 -304 0
v -560 -304 0
v -560 -288 0
v -544 -288 0
v -400 -320 0
v -416 -320 0
v -416 -304 0
v -400 -304 0
v -416 -320 0
v -432 -320 0
v -432 -304 0
v -416 -304 0
v -432 -320 0
v -448 -320 0
v -448 -304 0
v -432 -304 0
v -448 -320 0
v -464 -320 0
v -464 -304 0
v -448 -304 0
v -464 -320 0
v -480 -320 0
v -480 -304 0
v -464 -304 0
v -480 -320 0
v -496 -320 0
v -496 -304 0
v -480 -304 0
v -496 -320 0
v -512 -320 0
v -512 -304 0
v -496 -304 0
v -512 -320 0
v -528 -320 0
v -528 -304 0
v -512 -304 0
v -528 -320 0
v -544 -320 0
v -544 -304 0
v -528 -304 0
v -544 -320 0
v -560 -320 0
v -560 -304 0
v -544 -304 0
v -400 -336 0
v -416 -336 0
v -416 -320 0
v -400 -320 0
v -416 -336 0
v -432 -336 0
v -432 -320 0
v -416 -320 0
v -432 -336 0
v -448 -336 0
v -448 -320 0
v -432 -320 0
v -448 -336 0
v -464 -336 0
v -464 -320 0
v -448 -320 0
v -464 -336 0
v -480 -336 0
v -480 -320 0
v -464 -320 0
v -480 -336 0
v -496 -336 0
v -496 -320 0
v -480 -320 0
v -496 -336 0
v -512 -336 0
v -512 -320 0
v -496 -320 0
v -512 -336 0
v -528 -336 0
v -528 -320 0
v -512 -320 0
v -528 -336 0
v -544 -336 0
v -544 -320 0
v -528 -320 0
v -544 -336 0
v -560 -336 0
v -560 -320 0
v -544 -320 0
v -400 -352 0
v -416 -352 0
v -416 -336 0
v -400 -336 0
v -416 -352 0
v -432 -352 0
v -432 -336 0
v -416 -336 0
v -432 -352 0
v -448 -352 0
v -448 -336 0
v -432 -336 0
v -448 -352 0
v -464 -352 0
v -464 -336 0
v -448 -336 0
v -464 -352 0
v -480 -352 0
v -480 -336 0
v -464 -336 0
v -480 -352 0
v -496 -352 0
v -496 -336 0
v -480 -336 0
v -496 -352 0
v -512 -352 0
v -512 -336 0
v -496 -336 0
v -512 -352 0
v -528 -352 0
v -528 -336 0
v -512 -336 0
v -528 -352 0
v -544 -352 0
v -544 -336 0
v -528 -336 0
v -544 -352 0
v -560 -352 0
v -560 -336 0
v -544 -336 0
v -416 -368 0
v -432 -368 0
v -432 -352 0
v -416 -352 0
v -432 -368 0
v -448 -368 0
v -448 -352 0
v -432 -352 0
v -448 -368 0
v -464 -368 0
v -464 -352 0
v -448 -352 0
v -464 -368 0
v -480 -368 0
v -480 -352 0
v -464 -352 0
v -480 -368 0
v -496 -368 0
v -496 -352 0
v -480 -352 0
v -496 -368 0
v -512 -368 0
v -512 -352 0
v -496 -352 0
v -512 -368 0
v -528 -368 0
v -528 -352 0
v -512 -352 0
v -528 -368 0
v -544 -368 0
v -544 -352 0
v -528 -352 0
v -544 -368 0
v -560 -368 0
v -560 -352 0
v -544 -352 0
v -432 -384 0
v -448 -384 0
v -448 -368 0
v -432 -368 0
v -448 -384 0
v -464 -384 0
v -464 -368 0
v -448 -368 0
v -464 -384 0
v -480 -384 0
v -480 -368 0
v -464 -368 0
v -480 -384 0
v -496 -384 0
v -496 -368 0
v -480 -368 0
v -496 -384 0
v -512 -384 0
v -512 -368 0
v -496 -368 0
v -512 -384 0
v -528 -384 0
v -528 -368 0
v -512 -368 0
v -528 -384 0
v -544 -384 0
v -544 -368 0
v -528 -368 0
v -544 -384 0
v -560 -384 0
v -560 -368 0
v -544 -368 0
v -448 -400 0
v -464 -400 0
v -464 -384 0
v -448 -384 0
v -464 -400 0
v -480 -400 0
v -480 -384 0
v -464 -384 0
v -480 -400 0
v -496 -400 0
v -496 -384 0
v -480 -384 0
v -496 -400 0
v -512 -400 0
v -512 -384 0
v -496 -384 0
v -512 -400 0
v -528 -400 0
v -528 -384 0
v -512 -384 0
v -528 -400 0
v -544 -400 0
v -544 -384 0
v -528 -384 0
v -544 -400 0
v -560 -400 0
v -560 -384 0
v -544 -384 0
v -464 -416 0
v -480 -416 0
v -480 -400 0
v -464 -400 0
v -480 -416 0
v -496 -416 0
v -496 -400 0
v -480 -400 0
v -496 -416 0
v -512 -416 0
v -512 -400 0
v -496 -400 0
v -512 -416 0
v -528 -416 0
v -528 -400 0
v -512 -400 0
v -528 -416 0
v -544 -416 0
v -544 -400 0
v -528 -400 0
v -544 -416 0
v -560 -416 0
v -560 -400 0
v -544 -400 0
v -528 -432 0
v -544 -432 0
v -544 -416 0
v -528 -416 0
v -544 -432 0
v -560 -432 0
v -560 -416 0
v -544 -416 0

# Texture cooridinates (Count = 34)
vt 0.08 0.6111111
vt 0.12 0.6111111
vt 0.12 0.6666666
vt 0.08 0.6666666
vt 0.16 0.6111111
vt 0.16 0.6666666
vt 0.08 0.5555556
vt 0.12 0.5555556
vt 0.16 0.5555556
vt 0.04 0.5555556
vt 0.04 0.6111111
vt 0.08 0.4444444
vt 0.12 0.4444444
vt 0.12 0.5
vt 0.08 0.5
vt 0.16 0.4444444
vt 0.16 0.5
vt 0.2 0.4444444
vt 0.2 0.5
vt 0.04 0.3888889
vt 0.08 0.3888889
vt 0.04 0.4444444
vt 0.12 0.3888889
vt 0.16 0.3888889
vt 0 0.3888889
vt 0 0.4444444
vt 0.2 0.3888889
vt 0.08 0.3333333
vt 0.12 0.3333333
vt 0.04 0.5
vt 0 0.5
vt 0.16 0.3333333
vt 0.2 0.3333333
vt 0.04 0.6666666

# Normal
vn 0 0 -1

# Mesh description
g town1_mesh_0002

# Faces
f 1/1/1 2/2/1 3/3/1 4/4/1
f 5/2/1 6/5/1 7/6/1 8/3/1
f 9/7/1 10/8/1 11/2/1 12/1/1
f 13/8/1 14/9/1 15/5/1 16/2/1
f 17/1/1 18/2/1 19/3/1 20/4/1
f 21/2/1 22/5/1 23/6/1 24/3/1
f 25/10/1 26/7/1 27/1/1 28/11/1
f 29/8/1 30/9/1 31/5/1 32/2/1
f 33/1/1 34/2/1 35/3/1 36/4/1
f 37/10/1 38/7/1 39/1/1 40/11/1
f 41/8/1 42/9/1 43/5/1 44/2/1
f 45/8/1 46/9/1 47/5/1 48/2/1
f 49/8/1 50/9/1 51/5/1 52/2/1
f 53/1/1 54/2/1 55/3/1 56/4/1
f 57/10/1 58/7/1 59/1/1 60/11/1
f 61/8/1 62/9/1 63/5/1 64/2/1
f 65/8/1 66/9/1 67/5/1 68/2/1
f 69/8/1 70/9/1 71/5/1 72/2/1
f 73/8/1 74/9/1 75/5/1 76/2/1
f 77/7/1 78/8/1 79/2/1 80/1/1
f 81/8/1 82/9/1 83/5/1 84/2/1
f 85/8/1 86/9/1 87/5/1 88/2/1
f 89/8/1 90/9/1 91/5/1 92/2/1
f 93/8/1 94/9/1 95/5/1 96/2/1
f 97/8/1 98/9/1 99/5/1 100/2/1
f 101/12/1 102/13/1 103/14/1 104/15/1
f 105/13/1 106/16/1 107/17/1 108/14/1
f 109/13/1 110/16/1 111/17/1 112/14/1
f 113/13/1 114/16/1 115/17/1 116/14/1
f 117/13/1 118/16/1 119/17/1 120/14/1
f 121/16/1 122/18/1 123/19/1 124/17/1
f 125/1/1 126/2/1 127/3/1 128/4/1
f 129/2/1 130/5/1 131/6/1 132/3/1
f 133/10/1 134/7/1 135/1/1 136/11/1
f 137/8/1 138/9/1 139/5/1 140/2/1
f 141/8/1 142/9/1 143/5/1 144/2/1
f 145/8/1 146/9/1 147/5/1 148/2/1
f 149/8/1 150/9/1 151/5/1 152/2/1
f 153/8/1 154/9/1 155/5/1 156/2/1
f 157/12/1 158/13/1 159/14/1 160/15/1
f 161/20/1 162/21/1 163/12/1 164/22/1
f 165/23/1 166/24/1 167/16/1 168/13/1
f 169/23/1 170/24/1 171/16/1 172/13/1
f 173/23/1 174/24/1 175/16/1 176/13/1
f 177/23/1 178/24/1 179/16/1 180/13/1
f 181/25/1 182/20/1 183/22/1 184/26/1
f 185/16/1 186/18/1 187/19/1 188/17/1
f 189/1/1 190/2/1 191/3/1 192/4/1
f 193/10/1 194/7/1 195/1/1 196/11/1
f 197/8/1 198/9/1 199/5/1 200/2/1
f 201/8/1 202/9/1 203/5/1 204/2/1
f 205/8/1 206/9/1 207/5/1 208/2/1
f 209/8/1 210/9/1 211/5/1 212/2/1
f 213/8/1 214/9/1 215/5/1 216/2/1
f 217/8/1 218/9/1 219/5/1 220/2/1
f 221/8/1 222/9/1 223/5/1 224/2/1
f 225/21/1 226/23/1 227/13/1 228/12/1
f 229/23/1 230/24/1 231/16/1 232/13/1
f 233/23/1 234/24/1 235/16/1 236/13/1
f 237/23/1 238/24/1 239/16/1 240/13/1
f 241/23/1 242/24/1 243/16/1 244/13/1
f 245/23/1 246/24/1 247/16/1 248/13/1
f 249/23/1 250/24/1 251/16/1 252/13/1
f 253/24/1 254/27/1 255/18/1 256/16/1
f 257/7/1 258/8/1 259/2/1 260/1/1
f 261/8/1 262/9/1 263/5/1 264/2/1
f 265/8/1 266/9/1 267/5/1 268/2/1
f 269/8/1 270/9/1 271/5/1 272/2/1
f 273/8/1 274/9/1 275/5/1 276/2/1
f 277/8/1 278/9/1 279/5/1 280/2/1
f 281/8/1 282/9/1 283/5/1 284/2/1
f 285/8/1 286/9/1 287/5/1 288/2/1
f 289/8/1 290/9/1 291/5/1 292/2/1
f 293/21/1 294/23/1 295/13/1 296/12/1
f 297/23/1 298/24/1 299/16/1 300/13/1
f 301/23/1 302/24/1 303/16/1 304/13/1
f 305/23/1 306/24/1 307/16/1 308/13/1
f 309/23/1 310/24/1 311/16/1 312/13/1
f 313/23/1 314/24/1 315/16/1 316/13/1
f 317/23/1 318/24/1 319/16/1 320/13/1
f 321/24/1 322/27/1 323/18/1 324/16/1
f 325/1/1 326/2/1 327/3/1 328/4/1
f 329/10/1 330/7/1 331/1/1 332/11/1
f 333/8/1 334/9/1 335/5/1 336/2/1
f 337/8/1 338/9/1 339/5/1 340/2/1
f 341/8/1 342/9/1 343/5/1 344/2/1
f 345/8/1 346/9/1 347/5/1 348/2/1
f 349/8/1 350/9/1 351/5/1 352/2/1
f 353/8/1 354/9/1 355/5/1 356/2/1
f 357/8/1 358/9/1 359/5/1 360/2/1
f 361/8/1 362/9/1 363/5/1 364/2/1
f 365/21/1 366/23/1 367/13/1 368/12/1
f 369/23/1 370/24/1 371/16/1 372/13/1
f 373/23/1 374/24/1 375/16/1 376/13/1
f 377/23/1 378/24/1 379/16/1 380/13/1
f 381/23/1 382/24/1 383/16/1 384/13/1
f 385/23/1 386/24/1 387/16/1 388/13/1
f 389/23/1 390/24/1 391/16/1 392/13/1
f 393/24/1 394/27/1 395/18/1 396/16/1
f 397/7/1 398/8/1 399/2/1 400/1/1
f 401/8/1 402/9/1 403/5/1 404/2/1
f 405/8/1 406/9/1 407/5/1 408/2/1
f 409/8/1 410/9/1 411/5/1 412/2/1
f 413/8/1 414/9/1 415/5/1 416/2/1
f 417/8/1 418/9/1 419/5/1 420/2/1
f 421/8/1 422/9/1 423/5/1 424/2/1
f 425/8/1 426/9/1 427/5/1 428/2/1
f 429/8/1 430/9/1 431/5/1 432/2/1
f 433/8/1 434/9/1 435/5/1 436/2/1
f 437/28/1 438/29/1 439/23/1 440/21/1
f 441/22/1 442/12/1 443/15/1 444/30/1
f 445/23/1 446/24/1 447/16/1 448/13/1
f 449/23/1 450/24/1 451/16/1 452/13/1
f 453/23/1 454/24/1 455/16/1 456/13/1
f 457/23/1 458/24/1 459/16/1 460/13/1
f 461/26/1 462/22/1 463/30/1 464/31/1
f 465/32/1 466/33/1 467/27/1 468/24/1
f 469/7/1 470/8/1 471/2/1 472/1/1
f 473/8/1 474/9/1 475/5/1 476/2/1
f 477/8/1 478/9/1 479/5/1 480/2/1
f 481/8/1 482/9/1 483/5/1 484/2/1
f 485/8/1 486/9/1 487/5/1 488/2/1
f 489/8/1 490/9/1 491/5/1 492/2/1
f 493/8/1 494/9/1 495/5/1 496/2/1
f 497/8/1 498/9/1 499/5/1 500/2/1
f 501/8/1 502/9/1 503/5/1 504/2/1
f 505/8/1 506/9/1 507/5/1 508/2/1
f 509/28/1 510/29/1 511/23/1 512/21/1
f 513/29/1 514/32/1 515/24/1 516/23/1
f 517/29/1 518/32/1 519/24/1 520/23/1
f 521/29/1 522/32/1 523/24/1 524/23/1
f 525/29/1 526/32/1 527/24/1 528/23/1
f 529/32/1 530/33/1 531/27/1 532/24/1
f 533/7/1 534/8/1 535/2/1 536/1/1
f 537/8/1 538/9/1 539/5/1 540/2/1
f 541/8/1 542/9/1 543/5/1 544/2/1
f 545/8/1 546/9/1 547/5/1 548/2/1
f 549/8/1 550/9/1 551/5/1 552/2/1
f 553/8/1 554/9/1 555/5/1 556/2/1
f 557/8/1 558/9/1 559/5/1 560/2/1
f 561/8/1 562/9/1 563/5/1 564/2/1
f 565/8/1 566/9/1 567/5/1 568/2/1
f 569/8/1 570/9/1 571/5/1 572/2/1
f 573/7/1 574/8/1 575/2/1 576/1/1
f 577/8/1 578/9/1 579/5/1 580/2/1
f 581/8/1 582/9/1 583/5/1 584/2/1
f 585/8/1 586/9/1 587/5/1 588/2/1
f 589/8/1 590/9/1 591/5/1 592/2/1
f 593/8/1 594/9/1 595/5/1 596/2/1
f 597/8/1 598/9/1 599/5/1 600/2/1
f 601/8/1 602/9/1 603/5/1 604/2/1
f 605/8/1 606/9/1 607/5/1 608/2/1
f 609/8/1 610/9/1 611/5/1 612/2/1
f 613/7/1 614/8/1 615/2/1 616/1/1
f 617/8/1 618/9/1 619/5/1 620/2/1
f 621/8/1 622/9/1 623/5/1 624/2/1
f 625/8/1 626/9/1 627/5/1 628/2/1
f 629/8/1 630/9/1 631/5/1 632/2/1
f 633/8/1 634/9/1 635/5/1 636/2/1
f 637/8/1 638/9/1 639/5/1 640/2/1
f 641/8/1 642/9/1 643/5/1 644/2/1
f 645/8/1 646/9/1 647/5/1 648/2/1
f 649/8/1 650/9/1 651/5/1 652/2/1
f 653/7/1 654/8/1 655/2/1 656/1/1
f 657/8/1 658/9/1 659/5/1 660/2/1
f 661/8/1 662/9/1 663/5/1 664/2/1
f 665/8/1 666/9/1 667/5/1 668/2/1
f 669/8/1 670/9/1 671/5/1 672/2/1
f 673/8/1 674/9/1 675/5/1 676/2/1
f 677/8/1 678/9/1 679/5/1 680/2/1
f 681/8/1 682/9/1 683/5/1 684/2/1
f 685/8/1 686/9/1 687/5/1 688/2/1
f 689/8/1 690/9/1 691/5/1 692/2/1
f 693/15/1 694/14/1 695/8/1 696/7/1
f 697/11/1 698/1/1 699/4/1 700/34/1
f 701/8/1 702/9/1 703/5/1 704/2/1
f 705/8/1 706/9/1 707/5/1 708/2/1
f 709/8/1 710/9/1 711/5/1 712/2/1
f 713/8/1 714/9/1 715/5/1 716/2/1
f 717/8/1 718/9/1 719/5/1 720/2/1
f 721/8/1 722/9/1 723/5/1 724/2/1
f 725/8/1 726/9/1 727/5/1 728/2/1
f 729/8/1 730/9/1 731/5/1 732/2/1
f 733/15/1 734/14/1 735/8/1 736/7/1
f 737/11/1 738/1/1 739/4/1 740/34/1
f 741/8/1 742/9/1 743/5/1 744/2/1
f 745/8/1 746/9/1 747/5/1 748/2/1
f 749/8/1 750/9/1 751/5/1 752/2/1
f 753/8/1 754/9/1 755/5/1 756/2/1
f 757/8/1 758/9/1 759/5/1 760/2/1
f 761/8/1 762/9/1 763/5/1 764/2/1
f 765/8/1 766/9/1 767/5/1 768/2/1
f 769/15/1 770/14/1 771/8/1 772/7/1
f 773/11/1 774/1/1 775/4/1 776/34/1
f 777/8/1 778/9/1 779/5/1 780/2/1
f 781/8/1 782/9/1 783/5/1 784/2/1
f 785/8/1 786/9/1 787/5/1 788/2/1
f 789/8/1 790/9/1 791/5/1 792/2/1
f 793/8/1 794/9/1 795/5/1 796/2/1
f 797/8/1 798/9/1 799/5/1 800/2/1
f 801/15/1 802/14/1 803/8/1 804/7/1
f 805/11/1 806/1/1 807/4/1 808/34/1
f 809/8/1 810/9/1 811/5/1 812/2/1
f 813/8/1 814/9/1 815/5/1 816/2/1
f 817/8/1 818/9/1 819/5/1 820/2/1
f 821/8/1 822/9/1 823/5/1 824/2/1
f 825/8/1 826/9/1 827/5/1 828/2/1
f 829/15/1 830/14/1 831/8/1 832/7/1
f 833/14/1 834/17/1 835/9/1 836/8/1
f 837/14/1 838/17/1 839/9/1 840/8/1
f 841/14/1 842/17/1 843/9/1 844/8/1
f 845/11/1 846/1/1 847/4/1 848/34/1
f 849/8/1 850/9/1 851/5/1 852/2/1
f 853/15/1 854/14/1 855/8/1 856/7/1
f 857/14/1 858/17/1 859/9/1 860/8/1

