# Tiled2Unity generated file. Do not modify by hand.
# Wavefront file for 'town1_mesh_0003.obj'

# Vertices (Count = 212)
v -432 -48 0
v -448 -48 0
v -448 -32 0
v -432 -32 0
v -448 -48 0
v -464 -48 0
v -464 -32 0
v -448 -32 0
v -464 -48 0
v -480 -48 0
v -480 -32 0
v -464 -32 0
v -480 -48 0
v -496 -48 0
v -496 -32 0
v -480 -32 0
v -496 -48 0
v -512 -48 0
v -512 -32 0
v -496 -32 0
v -512 -48 0
v -528 -48 0
v -528 -32 0
v -512 -32 0
v -496 -80 0
v -512 -80 0
v -512 -64 0
v -496 -64 0
v -512 -80 0
v -528 -80 0
v -528 -64 0
v -512 -64 0
v -528 -80 0
v -544 -80 0
v -544 -64 0
v -528 -64 0
v -544 -80 0
v -560 -80 0
v -560 -64 0
v -544 -64 0
v -480 -96 0
v -496 -96 0
v -496 -80 0
v -480 -80 0
v -496 -96 0
v -512 -96 0
v -512 -80 0
v -496 -80 0
v -512 -96 0
v -528 -96 0
v -528 -80 0
v -512 -80 0
v -304 -112 0
v -320 -112 0
v -320 -96 0
v -304 -96 0
v -352 -112 0
v -368 -112 0
v -368 -96 0
v -352 -96 0
v -480 -112 0
v -496 -112 0
v -496 -96 0
v -480 -96 0
v -496 -112 0
v -512 -112 0
v -512 -96 0
v -496 -96 0
v -512 -112 0
v -528 -112 0
v -528 -96 0
v -512 -96 0
v -288 -128 0
v -304 -128 0
v -304 -112 0
v -288 -112 0
v -304 -128 0
v -320 -128 0
v -320 -112 0
v -304 -112 0
v -320 -128 0
v -336 -128 0
v -336 -112 0
v -320 -112 0
v -464 -128 0
v -480 -128 0
v -480 -112 0
v -464 -112 0
v -496 -128 0
v -512 -128 0
v -512 -112 0
v -496 -112 0
v -448 -144 0
v -464 -144 0
v -464 -128 0
v -448 -128 0
v -400 -208 0
v -416 -208 0
v -416 -192 0
v -400 -192 0
v -448 -224 0
v -464 -224 0
v -464 -208 0
v -448 -208 0
v -384 -240 0
v -400 -240 0
v -400 -224 0
v -384 -224 0
v -448 -240 0
v -464 -240 0
v -464 -224 0
v -448 -224 0
v -368 -256 0
v -384 -256 0
v -384 -240 0
v -368 -240 0
v -112 -304 0
v -128 -304 0
v -128 -288 0
v -112 -288 0
v -384 -304 0
v -400 -304 0
v -400 -288 0
v -384 -288 0
v -112 -320 0
v -128 -320 0
v -128 -304 0
v -112 -304 0
v -368 -336 0
v -384 -336 0
v -384 -320 0
v -368 -320 0
v -384 -352 0
v -400 -352 0
v -400 -336 0
v -384 -336 0
v -400 -352 0
v -416 -352 0
v -416 -336 0
v -400 -336 0
v -400 -384 0
v -416 -384 0
v -416 -368 0
v -400 -368 0
v -416 -384 0
v -432 -384 0
v -432 -368 0
v -416 -368 0
v -432 -384 0
v -448 -384 0
v -448 -368 0
v -432 -368 0
v -416 -400 0
v -432 -400 0
v -432 -384 0
v -416 -384 0
v -432 -400 0
v -448 -400 0
v -448 -384 0
v -432 -384 0
v -448 -400 0
v -464 -400 0
v -464 -384 0
v -448 -384 0
v -416 -416 0
v -432 -416 0
v -432 -400 0
v -416 -400 0
v -448 -416 0
v -464 -416 0
v -464 -400 0
v -448 -400 0
v -464 -416 0
v -480 -416 0
v -480 -400 0
v -464 -400 0
v -304 -432 0
v -320 -432 0
v -320 -416 0
v -304 -416 0
v -320 -432 0
v -336 -432 0
v -336 -416 0
v -320 -416 0
v -336 -432 0
v -352 -432 0
v -352 -416 0
v -336 -416 0
v -352 -432 0
v -368 -432 0
v -368 -416 0
v -352 -416 0
v -416 -432 0
v -432 -432 0
v -432 -416 0
v -416 -416 0
v -432 -432 0
v -448 -432 0
v -448 -416 0
v -432 -416 0
v -448 -432 0
v -464 -432 0
v -464 -416 0
v -448 -416 0
v -464 -432 0
v -480 -432 0
v -480 -416 0
v -464 -416 0
v -480 -432 0
v -496 -432 0
v -496 -416 0
v -480 -416 0

# Texture cooridinates (Count = 37)
vt 0.12 0.05555558
vt 0.16 0.05555558
vt 0.16 0.1111111
vt 0.12 0.1111111
vt 0.2 0.2222222
vt 0.24 0.2222222
vt 0.24 0.2777778
vt 0.2 0.2777778
vt 0.28 0.2222222
vt 0.28 0.2777778
vt 0.24 0.3333333
vt 0.28 0.3333333
vt 0.28 0.3888889
vt 0.24 0.3888889
vt 0.2 0.1666667
vt 0.24 0.1666667
vt 0.32 0.3333333
vt 0.32 0.3888889
vt 0.32 0.2222222
vt 0.32 0.2777778
vt 0.2 0.1111111
vt 0.24 0.1111111
vt 0.28 0.1111111
vt 0.32 0.1111111
vt 0.32 0.1666667
vt 0.28 0.1666667
vt 0 0.6666666
vt 0.04 0.6666666
vt 0.04 0.7222222
vt 0 0.7222222
vt 0.32 0.4444444
vt 0.28 0.4444444
vt 0.12 0.1666667
vt 0.16 0.1666667
vt 0.16 0.2222222
vt 0.12 0.2222222
vt 0.2 0.3333333

# Normal
vn 0 0 -1

# Mesh description
g town1_mesh_0003

# Faces
f 1/1/1 2/2/1 3/3/1 4/4/1
f 5/1/1 6/2/1 7/3/1 8/4/1
f 9/1/1 10/2/1 11/3/1 12/4/1
f 13/1/1 14/2/1 15/3/1 16/4/1
f 17/1/1 18/2/1 19/3/1 20/4/1
f 21/1/1 22/2/1 23/3/1 24/4/1
f 25/5/1 26/6/1 27/7/1 28/8/1
f 29/6/1 30/9/1 31/10/1 32/7/1
f 33/11/1 34/12/1 35/13/1 36/14/1
f 37/11/1 38/12/1 39/13/1 40/14/1
f 41/11/1 42/12/1 43/13/1 44/14/1
f 45/15/1 46/16/1 47/6/1 48/5/1
f 49/12/1 50/17/1 51/18/1 52/13/1
f 53/9/1 54/19/1 55/20/1 56/10/1
f 57/11/1 58/12/1 59/13/1 60/14/1
f 61/11/1 62/12/1 63/13/1 64/14/1
f 65/21/1 66/22/1 67/16/1 68/15/1
f 69/23/1 70/24/1 71/25/1 72/26/1
f 73/11/1 74/12/1 75/13/1 76/14/1
f 77/23/1 78/24/1 79/25/1 80/26/1
f 81/11/1 82/12/1 83/13/1 84/14/1
f 85/11/1 86/12/1 87/13/1 88/14/1
f 89/11/1 90/12/1 91/13/1 92/14/1
f 93/11/1 94/12/1 95/13/1 96/14/1
f 97/27/1 98/28/1 99/29/1 100/30/1
f 101/28/1 102/27/1 103/30/1 104/29/1
f 105/27/1 106/28/1 107/29/1 108/30/1
f 109/29/1 110/30/1 111/27/1 112/28/1
f 113/27/1 114/28/1 115/29/1 116/30/1
f 117/9/1 118/19/1 119/20/1 120/10/1
f 121/11/1 122/12/1 123/13/1 124/14/1
f 125/23/1 126/24/1 127/25/1 128/26/1
f 129/11/1 130/12/1 131/13/1 132/14/1
f 133/11/1 134/12/1 135/13/1 136/14/1
f 137/11/1 138/12/1 139/13/1 140/14/1
f 141/11/1 142/12/1 143/13/1 144/14/1
f 145/6/1 146/9/1 147/10/1 148/7/1
f 149/9/1 150/19/1 151/20/1 152/10/1
f 153/21/1 154/22/1 155/16/1 156/15/1
f 157/22/1 158/23/1 159/26/1 160/16/1
f 161/13/1 162/18/1 163/31/1 164/32/1
f 165/11/1 166/12/1 167/13/1 168/14/1
f 169/12/1 170/17/1 171/18/1 172/13/1
f 173/9/1 174/19/1 175/20/1 176/10/1
f 177/33/1 178/34/1 179/35/1 180/36/1
f 181/34/1 182/15/1 183/5/1 184/35/1
f 185/33/1 186/34/1 187/35/1 188/36/1
f 189/34/1 190/15/1 191/5/1 192/35/1
f 193/8/1 194/7/1 195/11/1 196/37/1
f 197/7/1 198/10/1 199/12/1 200/11/1
f 201/26/1 202/25/1 203/19/1 204/9/1
f 205/26/1 206/25/1 207/19/1 208/9/1
f 209/26/1 210/25/1 211/19/1 212/9/1

