# Tiled2Unity generated file. Do not modify by hand.
# Wavefront file for 'town1_mesh_0005.obj'

# Vertices (Count = 384)
v -192 -80 0
v -208 -80 0
v -208 -64 0
v -192 -64 0
v -208 -80 0
v -224 -80 0
v -224 -64 0
v -208 -64 0
v -224 -80 0
v -240 -80 0
v -240 -64 0
v -224 -64 0
v -240 -80 0
v -256 -80 0
v -256 -64 0
v -240 -64 0
v -256 -80 0
v -272 -80 0
v -272 -64 0
v -256 -64 0
v -272 -80 0
v -288 -80 0
v -288 -64 0
v -272 -64 0
v -192 -96 0
v -208 -96 0
v -208 -80 0
v -192 -80 0
v -208 -96 0
v -224 -96 0
v -224 -80 0
v -208 -80 0
v -224 -96 0
v -240 -96 0
v -240 -80 0
v -224 -80 0
v -240 -96 0
v -256 -96 0
v -256 -80 0
v -240 -80 0
v -256 -96 0
v -272 -96 0
v -272 -80 0
v -256 -80 0
v -272 -96 0
v -288 -96 0
v -288 -80 0
v -272 -80 0
v -192 -112 0
v -208 -112 0
v -208 -96 0
v -192 -96 0
v -208 -112 0
v -224 -112 0
v -224 -96 0
v -208 -96 0
v -224 -112 0
v -240 -112 0
v -240 -96 0
v -224 -96 0
v -240 -112 0
v -256 -112 0
v -256 -96 0
v -240 -96 0
v -256 -112 0
v -272 -112 0
v -272 -96 0
v -256 -96 0
v -272 -112 0
v -288 -112 0
v -288 -96 0
v -272 -96 0
v -192 -128 0
v -208 -128 0
v -208 -112 0
v -192 -112 0
v -208 -128 0
v -224 -128 0
v -224 -112 0
v -208 -112 0
v -224 -128 0
v -240 -128 0
v -240 -112 0
v -224 -112 0
v -240 -128 0
v -256 -128 0
v -256 -112 0
v -240 -112 0
v -256 -128 0
v -272 -128 0
v -272 -112 0
v -256 -112 0
v -272 -128 0
v -288 -128 0
v -288 -112 0
v -272 -112 0
v -144 -144 0
v -160 -144 0
v -160 -128 0
v -144 -128 0
v -160 -144 0
v -176 -144 0
v -176 -128 0
v -160 -128 0
v -176 -144 0
v -192 -144 0
v -192 -128 0
v -176 -128 0
v -192 -144 0
v -208 -144 0
v -208 -128 0
v -192 -128 0
v -208 -144 0
v -224 -144 0
v -224 -128 0
v -208 -128 0
v -224 -144 0
v -240 -144 0
v -240 -128 0
v -224 -128 0
v -240 -144 0
v -256 -144 0
v -256 -128 0
v -240 -128 0
v -256 -144 0
v -272 -144 0
v -272 -128 0
v -256 -128 0
v -272 -144 0
v -288 -144 0
v -288 -128 0
v -272 -128 0
v -288 -144 0
v -304 -144 0
v -304 -128 0
v -288 -128 0
v -304 -144 0
v -320 -144 0
v -320 -128 0
v -304 -128 0
v -320 -144 0
v -336 -144 0
v -336 -128 0
v -320 -128 0
v -336 -144 0
v -352 -144 0
v -352 -128 0
v -336 -128 0
v -336 -160 0
v -352 -160 0
v -352 -144 0
v -336 -144 0
v -144 -176 0
v -160 -176 0
v -160 -160 0
v -144 -160 0
v -128 -192 0
v -144 -192 0
v -144 -176 0
v -128 -176 0
v -160 -192 0
v -176 -192 0
v -176 -176 0
v -160 -176 0
v -240 -208 0
v -256 -208 0
v -256 -192 0
v -240 -192 0
v -256 -208 0
v -272 -208 0
v -272 -192 0
v -256 -192 0
v -304 -208 0
v -320 -208 0
v -320 -192 0
v -304 -192 0
v -320 -208 0
v -336 -208 0
v -336 -192 0
v -320 -192 0
v -144 -224 0
v -160 -224 0
v -160 -208 0
v -144 -208 0
v -272 -224 0
v -288 -224 0
v -288 -208 0
v -272 -208 0
v -288 -224 0
v -304 -224 0
v -304 -208 0
v -288 -208 0
v -272 -240 0
v -288 -240 0
v -288 -224 0
v -272 -224 0
v -288 -240 0
v -304 -240 0
v -304 -224 0
v -288 -224 0
v -144 -272 0
v -160 -272 0
v -160 -256 0
v -144 -256 0
v -160 -272 0
v -176 -272 0
v -176 -256 0
v -160 -256 0
v -176 -272 0
v -192 -272 0
v -192 -256 0
v -176 -256 0
v -192 -272 0
v -208 -272 0
v -208 -256 0
v -192 -256 0
v -144 -288 0
v -160 -288 0
v -160 -272 0
v -144 -272 0
v -160 -288 0
v -176 -288 0
v -176 -272 0
v -160 -272 0
v -176 -288 0
v -192 -288 0
v -192 -272 0
v -176 -272 0
v -192 -288 0
v -208 -288 0
v -208 -272 0
v -192 -272 0
v -144 -304 0
v -160 -304 0
v -160 -288 0
v -144 -288 0
v -160 -304 0
v -176 -304 0
v -176 -288 0
v -160 -288 0
v -176 -304 0
v -192 -304 0
v -192 -288 0
v -176 -288 0
v -192 -304 0
v -208 -304 0
v -208 -288 0
v -192 -288 0
v -304 -304 0
v -320 -304 0
v -320 -288 0
v -304 -288 0
v -320 -304 0
v -336 -304 0
v -336 -288 0
v -320 -288 0
v -336 -304 0
v -352 -304 0
v -352 -288 0
v -336 -288 0
v -352 -304 0
v -368 -304 0
v -368 -288 0
v -352 -288 0
v -144 -320 0
v -160 -320 0
v -160 -304 0
v -144 -304 0
v -160 -320 0
v -176 -320 0
v -176 -304 0
v -160 -304 0
v -176 -320 0
v -192 -320 0
v -192 -304 0
v -176 -304 0
v -192 -320 0
v -208 -320 0
v -208 -304 0
v -192 -304 0
v -304 -320 0
v -320 -320 0
v -320 -304 0
v -304 -304 0
v -320 -320 0
v -336 -320 0
v -336 -304 0
v -320 -304 0
v -336 -320 0
v -352 -320 0
v -352 -304 0
v -336 -304 0
v -352 -320 0
v -368 -320 0
v -368 -304 0
v -352 -304 0
v -112 -336 0
v -128 -336 0
v -128 -320 0
v -112 -320 0
v -128 -336 0
v -144 -336 0
v -144 -320 0
v -128 -320 0
v -144 -336 0
v -160 -336 0
v -160 -320 0
v -144 -320 0
v -192 -336 0
v -208 -336 0
v -208 -320 0
v -192 -320 0
v -208 -336 0
v -224 -336 0
v -224 -320 0
v -208 -320 0
v -224 -336 0
v -240 -336 0
v -240 -320 0
v -224 -320 0
v -304 -336 0
v -320 -336 0
v -320 -320 0
v -304 -320 0
v -320 -336 0
v -336 -336 0
v -336 -320 0
v -320 -320 0
v -336 -336 0
v -352 -336 0
v -352 -320 0
v -336 -320 0
v -352 -336 0
v -368 -336 0
v -368 -320 0
v -352 -320 0
v -144 -352 0
v -160 -352 0
v -160 -336 0
v -144 -336 0
v -208 -352 0
v -224 -352 0
v -224 -336 0
v -208 -336 0
v -304 -352 0
v -320 -352 0
v -320 -336 0
v -304 -336 0
v -320 -352 0
v -336 -352 0
v -336 -336 0
v -320 -336 0
v -336 -352 0
v -352 -352 0
v -352 -336 0
v -336 -336 0
v -352 -352 0
v -368 -352 0
v -368 -336 0
v -352 -336 0
v -128 -368 0
v -144 -368 0
v -144 -352 0
v -128 -352 0
v -352 -368 0
v -368 -368 0
v -368 -352 0
v -352 -352 0
v -368 -368 0
v -384 -368 0
v -384 -352 0
v -368 -352 0
v -384 -368 0
v -400 -368 0
v -400 -352 0
v -384 -352 0
v -400 -368 0
v -416 -368 0
v -416 -352 0
v -400 -352 0
v -416 -368 0
v -432 -368 0
v -432 -352 0
v -416 -352 0

# Texture cooridinates (Count = 112)
vt 0.68 0.8888889
vt 0.72 0.8888889
vt 0.72 0.9444444
vt 0.68 0.9444444
vt 0.76 0.8888889
vt 0.76 0.9444444
vt 0.8 0.8888889
vt 0.8 0.9444444
vt 0.84 0.8888889
vt 0.84 0.9444444
vt 0.88 0.8888889
vt 0.88 0.9444444
vt 0.92 0.8888889
vt 0.92 0.9444444
vt 0.68 0.8333333
vt 0.72 0.8333333
vt 0.76 0.8333333
vt 0.8 0.8333333
vt 0.84 0.8333333
vt 0.88 0.8333333
vt 0.92 0.8333333
vt 0.68 0.7777778
vt 0.72 0.7777778
vt 0.76 0.7777778
vt 0.8 0.7777778
vt 0.84 0.7777778
vt 0.88 0.7777778
vt 0.92 0.7777778
vt 0.68 0.7222222
vt 0.72 0.7222222
vt 0.76 0.7222222
vt 0.8 0.7222222
vt 0.84 0.7222222
vt 0.88 0.7222222
vt 0.92 0.7222222
vt 0.2 0.05555558
vt 0.24 0.05555558
vt 0.24 0.1111111
vt 0.2 0.1111111
vt 0.28 0.05555558
vt 0.28 0.1111111
vt 0.32 0.05555558
vt 0.32 0.1111111
vt 0.68 0.6666666
vt 0.72 0.6666666
vt 0.76 0.6666666
vt 0.8 0.6666666
vt 0.84 0.6666666
vt 0.88 0.6666666
vt 0.92 0.6666666
vt 0 0.5
vt 0.04 0.5
vt 0.04 0.5555556
vt 0 0.5555556
vt 0.12 0.1666667
vt 0.16 0.1666667
vt 0.16 0.2222222
vt 0.12 0.2222222
vt 0.2 0.1666667
vt 0.2 0.2222222
vt 0.12 0.2777778
vt 0.16 0.2777778
vt 0.16 0.3333333
vt 0.12 0.3333333
vt 0.2 0.2777778
vt 0.2 0.3333333
vt 0.36 0.8333333
vt 0.4 0.8333333
vt 0.4 0.8888889
vt 0.36 0.8888889
vt 0.44 0.8333333
vt 0.44 0.8888889
vt 0.48 0.8333333
vt 0.48 0.8888889
vt 0.52 0.8333333
vt 0.52 0.8888889
vt 0.36 0.7777778
vt 0.4 0.7777778
vt 0.44 0.7777778
vt 0.48 0.7777778
vt 0.52 0.7777778
vt 0.36 0.7222222
vt 0.4 0.7222222
vt 0.44 0.7222222
vt 0.48 0.7222222
vt 0.52 0.7222222
vt 0.56 0.8333333
vt 0.56 0.8888889
vt 0.6 0.8333333
vt 0.6 0.8888889
vt 0.64 0.8333333
vt 0.64 0.8888889
vt 0.36 0.6666666
vt 0.4 0.6666666
vt 0.44 0.6666666
vt 0.48 0.6666666
vt 0.52 0.6666666
vt 0.56 0.7777778
vt 0.6 0.7777778
vt 0.64 0.7777778
vt 0.56 0.7222222
vt 0.6 0.7222222
vt 0.64 0.7222222
vt 0.56 0.6666666
vt 0.6 0.6666666
vt 0.64 0.6666666
vt 0.08 0.05555558
vt 0.12 0.05555558
vt 0.12 0.1111111
vt 0.08 0.1111111
vt 0.16 0.05555558
vt 0.16 0.1111111

# Normal
vn 0 0 -1

# Mesh description
g town1_mesh_0005

# Faces
f 1/1/1 2/2/1 3/3/1 4/4/1
f 5/2/1 6/5/1 7/6/1 8/3/1
f 9/5/1 10/7/1 11/8/1 12/6/1
f 13/7/1 14/9/1 15/10/1 16/8/1
f 17/9/1 18/11/1 19/12/1 20/10/1
f 21/11/1 22/13/1 23/14/1 24/12/1
f 25/15/1 26/16/1 27/2/1 28/1/1
f 29/16/1 30/17/1 31/5/1 32/2/1
f 33/17/1 34/18/1 35/7/1 36/5/1
f 37/18/1 38/19/1 39/9/1 40/7/1
f 41/19/1 42/20/1 43/11/1 44/9/1
f 45/20/1 46/21/1 47/13/1 48/11/1
f 49/22/1 50/23/1 51/16/1 52/15/1
f 53/23/1 54/24/1 55/17/1 56/16/1
f 57/24/1 58/25/1 59/18/1 60/17/1
f 61/25/1 62/26/1 63/19/1 64/18/1
f 65/26/1 66/27/1 67/20/1 68/19/1
f 69/27/1 70/28/1 71/21/1 72/20/1
f 73/29/1 74/30/1 75/23/1 76/22/1
f 77/30/1 78/31/1 79/24/1 80/23/1
f 81/31/1 82/32/1 83/25/1 84/24/1
f 85/32/1 86/33/1 87/26/1 88/25/1
f 89/33/1 90/34/1 91/27/1 92/26/1
f 93/34/1 94/35/1 95/28/1 96/27/1
f 97/36/1 98/37/1 99/38/1 100/39/1
f 101/37/1 102/40/1 103/41/1 104/38/1
f 105/40/1 106/42/1 107/43/1 108/41/1
f 109/44/1 110/45/1 111/30/1 112/29/1
f 113/45/1 114/46/1 115/31/1 116/30/1
f 117/46/1 118/47/1 119/32/1 120/31/1
f 121/47/1 122/48/1 123/33/1 124/32/1
f 125/48/1 126/49/1 127/34/1 128/33/1
f 129/49/1 130/50/1 131/35/1 132/34/1
f 133/36/1 134/37/1 135/38/1 136/39/1
f 137/37/1 138/40/1 139/41/1 140/38/1
f 141/37/1 142/40/1 143/41/1 144/38/1
f 145/40/1 146/42/1 147/43/1 148/41/1
f 149/51/1 150/52/1 151/53/1 152/54/1
f 153/51/1 154/52/1 155/53/1 156/54/1
f 157/51/1 158/52/1 159/53/1 160/54/1
f 161/51/1 162/52/1 163/53/1 164/54/1
f 165/55/1 166/56/1 167/57/1 168/58/1
f 169/56/1 170/59/1 171/60/1 172/57/1
f 173/55/1 174/56/1 175/57/1 176/58/1
f 177/56/1 178/59/1 179/60/1 180/57/1
f 181/51/1 182/52/1 183/53/1 184/54/1
f 185/61/1 186/62/1 187/63/1 188/64/1
f 189/62/1 190/65/1 191/66/1 192/63/1
f 193/58/1 194/57/1 195/62/1 196/61/1
f 197/57/1 198/60/1 199/65/1 200/62/1
f 201/67/1 202/68/1 203/69/1 204/70/1
f 205/68/1 206/71/1 207/72/1 208/69/1
f 209/71/1 210/73/1 211/74/1 212/72/1
f 213/73/1 214/75/1 215/76/1 216/74/1
f 217/77/1 218/78/1 219/68/1 220/67/1
f 221/78/1 222/79/1 223/71/1 224/68/1
f 225/79/1 226/80/1 227/73/1 228/71/1
f 229/80/1 230/81/1 231/75/1 232/73/1
f 233/82/1 234/83/1 235/78/1 236/77/1
f 237/83/1 238/84/1 239/79/1 240/78/1
f 241/84/1 242/85/1 243/80/1 244/79/1
f 245/85/1 246/86/1 247/81/1 248/80/1
f 249/75/1 250/87/1 251/88/1 252/76/1
f 253/87/1 254/89/1 255/90/1 256/88/1
f 257/89/1 258/91/1 259/92/1 260/90/1
f 261/91/1 262/15/1 263/1/1 264/92/1
f 265/93/1 266/94/1 267/83/1 268/82/1
f 269/94/1 270/95/1 271/84/1 272/83/1
f 273/95/1 274/96/1 275/85/1 276/84/1
f 277/96/1 278/97/1 279/86/1 280/85/1
f 281/81/1 282/98/1 283/87/1 284/75/1
f 285/98/1 286/99/1 287/89/1 288/87/1
f 289/99/1 290/100/1 291/91/1 292/89/1
f 293/100/1 294/22/1 295/15/1 296/91/1
f 297/36/1 298/37/1 299/38/1 300/39/1
f 301/37/1 302/40/1 303/41/1 304/38/1
f 305/40/1 306/42/1 307/43/1 308/41/1
f 309/36/1 310/37/1 311/38/1 312/39/1
f 313/37/1 314/40/1 315/41/1 316/38/1
f 317/40/1 318/42/1 319/43/1 320/41/1
f 321/86/1 322/101/1 323/98/1 324/81/1
f 325/101/1 326/102/1 327/99/1 328/98/1
f 329/102/1 330/103/1 331/100/1 332/99/1
f 333/103/1 334/29/1 335/22/1 336/100/1
f 337/51/1 338/52/1 339/53/1 340/54/1
f 341/51/1 342/52/1 343/53/1 344/54/1
f 345/97/1 346/104/1 347/101/1 348/86/1
f 349/104/1 350/105/1 351/102/1 352/101/1
f 353/105/1 354/106/1 355/103/1 356/102/1
f 357/106/1 358/44/1 359/29/1 360/103/1
f 361/51/1 362/52/1 363/53/1 364/54/1
f 365/107/1 366/108/1 367/109/1 368/110/1
f 369/108/1 370/111/1 371/112/1 372/109/1
f 373/108/1 374/111/1 375/112/1 376/109/1
f 377/108/1 378/111/1 379/112/1 380/109/1
f 381/111/1 382/36/1 383/39/1 384/112/1

